if (_typeface_js && _typeface_js.loadFace) _typeface_js.loadFace({"glyphs":{"S":{"x_min":0,"x_max":0,"ha":628,"o":"m 622 890 l 566 788 q 401 829 484 829 q 291 791 336 829 q 245 695 245 752 q 277 605 245 648 q 353 528 308 562 q 443 458 398 494 q 520 370 488 422 q 551 255 551 318 q 463 58 551 134 q 251 -18 376 -18 q 123 -2 181 -18 q 41 27 65 12 l 16 43 l 41 148 q 58 137 40 147 q 102 115 76 127 q 168 94 129 104 q 243 84 208 84 q 364 122 308 84 q 420 233 420 161 q 388 325 420 281 q 311 402 356 368 q 222 472 266 436 q 145 559 177 508 q 113 669 113 609 q 204 857 113 783 q 409 930 294 930 q 518 920 465 930 q 597 900 570 911 l 622 890 "},"/":{"x_min":0,"x_max":0,"ha":494,"o":"m 494 912 l 97 -338 l -5 -338 l 387 912 l 494 912 "},"y":{"x_min":0,"x_max":0,"ha":625,"o":"m -144 -211 q -76 -225 -109 -225 q 131 -84 36 -225 l 193 5 l 181 34 l 106 568 l 68 683 l 204 701 l 273 222 l 275 122 l 320 218 l 469 466 q 476 683 534 576 l 602 701 q 623 627 619 663 q 619 555 627 591 q 596 487 611 519 q 558 416 581 455 l 219 -130 q 77 -283 158 -229 q -77 -337 -4 -337 q -147 -322 -112 -337 l -144 -211 "},"≈":{"x_min":0,"x_max":0,"ha":929},"Ž":{"x_min":0,"x_max":0,"ha":756,"o":"m -34 0 l -34 34 l 531 732 l 604 807 l 133 807 l 183 913 l 811 913 l 811 879 l 243 180 l 172 105 l 691 105 l 672 0 l -34 0 m 563 987 l 472 987 l 318 1186 l 397 1213 l 526 1084 l 680 1213 l 754 1186 l 563 987 "},"Á":{"x_min":0,"x_max":0,"ha":763,"o":"m -86 0 l 443 915 l 530 932 l 662 152 l 701 0 l 561 0 l 522 238 l 176 238 l 40 0 l -86 0 m 413 658 l 234 344 l 504 344 l 450 658 l 444 720 l 413 658 m 565 1215 l 718 1215 l 448 988 l 375 1016 l 565 1215 "},"g":{"x_min":0,"x_max":0,"ha":681,"o":"m 434 701 q 569 691 505 701 l 634 683 l 547 236 q 534 101 534 170 q 537 -17 534 50 q 540 -93 540 -84 q 448 -270 540 -202 q 231 -337 356 -337 q 93 -314 155 -337 q 0 -263 30 -291 q -45 -213 -30 -236 l -61 -190 l 29 -131 q 43 -151 33 -138 q 79 -189 52 -163 q 149 -231 105 -215 q 243 -248 193 -248 q 372 -202 319 -248 q 425 -80 425 -156 q 419 5 425 -62 q 418 106 413 73 q 342 27 400 73 q 212 -18 284 -18 q 104 41 147 -18 q 62 206 62 101 q 85 389 62 302 q 152 547 108 476 q 269 659 195 618 q 434 701 343 701 m 422 616 q 256 493 329 616 q 184 226 184 369 q 207 124 184 158 q 265 90 230 90 q 366 150 302 90 q 429 220 429 211 l 504 608 l 491 611 q 460 614 480 612 q 422 616 440 616 "},"²":{"x_min":0,"x_max":0,"ha":485,"o":"m 394 397 l 76 397 l 76 437 l 94 454 q 338 794 338 675 q 284 859 338 859 q 211 845 255 859 q 162 827 166 830 l 144 897 q 295 929 226 929 q 403 895 361 929 q 445 801 445 862 q 410 691 445 752 q 331 584 375 630 q 252 505 288 537 l 218 473 l 416 473 l 394 397 "},"–":{"x_min":0,"x_max":0,"ha":628,"o":"m 43 394 l 594 394 l 566 291 l 43 291 l 43 394 "},"ë":{"x_min":0,"x_max":0,"ha":624,"o":"m 587 552 q 526 404 587 465 q 376 316 465 343 q 183 290 287 290 l 183 276 q 222 141 183 194 q 344 88 262 88 q 446 115 394 88 q 525 168 498 141 l 552 194 l 552 73 q 537 58 548 68 q 497 28 526 48 q 420 -4 469 8 q 315 -18 372 -18 q 127 63 193 -18 q 61 268 61 145 q 158 574 61 444 q 406 704 255 704 q 541 662 495 704 q 587 552 587 620 m 388 613 q 261 543 313 613 q 191 370 209 472 q 250 377 216 372 q 336 398 283 383 q 425 450 390 413 q 461 538 461 487 q 388 613 461 613 m 330 876 q 309 822 330 844 q 261 800 288 800 q 212 822 233 800 q 191 876 191 844 q 212 929 191 907 q 261 952 233 952 q 309 929 288 952 q 330 876 330 907 m 586 876 q 565 822 586 844 q 516 800 544 800 q 468 822 488 800 q 447 876 447 844 q 468 929 447 907 q 516 952 488 952 q 565 929 544 952 q 586 876 586 907 "},"ƒ":{"x_min":0,"x_max":0,"ha":671,"o":"m 609 683 l 548 588 l 408 588 l 323 -13 q 218 -243 304 -152 q 31 -334 131 -333 l -1 -238 q 134 -180 80 -238 q 201 -13 187 -122 l 286 588 l 190 588 l 209 683 l 297 683 l 311 784 q 404 982 329 918 q 572 1047 480 1047 q 722 1000 650 1047 l 655 904 q 563 937 618 937 q 485 903 520 937 q 440 809 450 869 l 419 683 l 609 683 "},"Î":{"x_min":0,"x_max":0,"ha":410,"o":"m 370 913 l 213 104 l 208 0 l 69 0 l 222 786 l 227 913 l 370 913 m 280 1215 l 366 1215 l 520 1016 l 444 988 l 313 1118 l 161 988 l 90 1016 l 280 1215 "},"e":{"x_min":0,"x_max":0,"ha":624,"o":"m 587 552 q 526 404 587 465 q 376 316 465 343 q 183 290 287 290 l 183 276 q 222 141 183 194 q 344 88 262 88 q 446 115 394 88 q 525 168 498 141 l 552 194 l 552 73 q 537 58 548 68 q 497 28 526 48 q 420 -4 469 8 q 315 -18 372 -18 q 127 63 193 -18 q 61 268 61 145 q 158 574 61 444 q 406 704 255 704 q 541 662 495 704 q 587 552 587 620 m 388 613 q 261 543 313 613 q 191 370 209 472 q 250 377 216 372 q 336 398 283 383 q 425 450 390 413 q 461 538 461 487 q 388 613 461 613 "},"Ã":{"x_min":0,"x_max":0,"ha":763,"o":"m -86 0 l 443 915 l 530 932 l 662 152 l 701 0 l 561 0 l 522 238 l 176 238 l 40 0 l -86 0 m 413 658 l 234 344 l 504 344 l 450 658 l 444 720 l 413 658 m 655 1143 l 711 1107 q 674 1054 687 1070 q 631 1023 661 1038 q 559 1008 601 1008 q 463 1033 513 1008 q 390 1058 412 1058 q 316 1012 352 1058 l 261 1048 q 297 1100 284 1084 q 341 1132 311 1116 q 412 1147 370 1147 q 504 1120 452 1147 q 580 1094 555 1094 q 655 1143 629 1094 "},"J":{"x_min":0,"x_max":0,"ha":440,"o":"m 386 913 l 218 52 q 103 -181 190 -86 q -116 -276 16 -276 q -190 -268 -150 -276 l -159 -152 q -105 -161 -134 -161 q 20 -100 -34 -161 q 93 52 75 -38 l 236 786 l 243 913 l 386 913 "},"»":{"x_min":0,"x_max":0,"ha":860,"o":"m 651 341 l 456 572 l 527 661 l 804 343 l 404 25 l 366 113 l 651 341 m 333 341 l 138 572 l 209 661 l 486 343 l 86 25 l 48 113 l 333 341 "},"∆":{"x_min":0,"x_max":0,"ha":929},"©":{"x_min":0,"x_max":0,"ha":1097,"o":"m 727 644 l 676 572 q 556 633 633 633 q 461 584 495 633 q 426 461 426 534 q 461 335 426 387 q 563 283 497 283 q 635 302 598 283 q 691 338 672 320 l 711 358 l 727 266 q 704 246 719 258 q 637 215 688 234 q 529 195 586 195 q 379 270 434 195 q 323 445 323 345 q 386 637 323 558 q 559 716 448 716 q 727 644 666 716 m 1020 473 q 884 118 1020 254 q 526 -18 748 -18 q 203 111 330 -18 q 76 433 76 240 q 215 786 76 651 q 583 922 355 922 q 897 793 773 922 q 1020 473 1020 665 m 934 455 q 827 740 934 629 q 554 851 720 851 q 279 736 393 851 q 165 450 165 622 q 277 168 165 280 q 556 55 388 55 q 823 170 712 55 q 934 455 934 284 "},"˘":{"x_min":0,"x_max":0,"ha":558,"o":"m 275 870 q 352 904 313 870 q 411 972 391 938 l 429 1005 l 502 977 q 493 956 500 969 q 466 909 487 943 q 420 848 445 875 q 354 800 395 822 q 266 779 312 779 q 166 810 209 779 q 104 878 123 841 q 75 947 84 915 l 66 977 l 145 1005 q 154 983 148 997 q 176 939 161 969 q 218 890 191 909 q 275 870 244 870 "},"≥":{"x_min":0,"x_max":0,"ha":313},"ò":{"x_min":0,"x_max":0,"ha":699,"o":"m 305 75 q 452 166 384 75 q 520 413 520 258 q 483 554 520 497 q 386 612 445 612 q 237 504 300 612 q 175 275 175 397 q 207 129 175 184 q 305 75 240 75 m 643 433 q 602 211 643 312 q 477 46 562 111 q 277 -18 393 -18 q 167 8 213 -18 q 97 77 120 34 q 63 163 73 120 q 52 250 52 206 q 151 577 52 451 q 420 704 250 704 q 579 631 515 704 q 643 433 643 558 m 227 1005 l 380 1005 l 534 807 l 455 779 l 227 1005 "},"ﬄ":{"x_min":0,"x_max":0,"ha":1192,"o":"m 844 588 l 697 588 l 607 -15 q 510 -247 586 -159 q 320 -336 434 -334 l 288 -240 q 421 -181 369 -240 q 490 -15 473 -123 l 580 588 l 277 588 l 187 -15 q 90 -247 166 -159 q -98 -336 15 -334 l -130 -240 q 2 -181 -50 -240 q 70 -15 54 -123 l 161 588 l 73 588 l 88 683 l 175 683 l 188 770 q 257 927 202 862 q 382 1019 312 991 q 530 1047 452 1047 q 740 986 659 1047 q 945 1047 830 1047 q 1011 1038 975 1047 q 1109 1011 1048 1030 q 1204 983 1169 993 l 1030 104 l 1023 0 l 894 0 l 1070 904 q 940 945 998 945 q 787 899 841 945 q 723 782 733 852 l 708 683 l 902 683 l 844 588 m 291 683 l 594 683 l 608 770 q 654 897 618 838 q 525 945 591 945 q 372 899 426 945 q 306 782 318 852 l 291 683 "},"^":{"x_min":0,"x_max":0,"ha":867,"o":"m 765 444 l 668 444 l 431 870 l 195 444 l 98 444 l 393 983 l 470 983 q 765 444 745 477 "},"«":{"x_min":0,"x_max":0,"ha":858,"o":"m 491 572 l 205 341 l 401 113 l 330 25 l 55 343 l 454 661 l 491 572 m 809 572 l 523 341 l 719 113 l 648 25 l 373 343 l 772 661 l 809 572 "},"D":{"x_min":0,"x_max":0,"ha":914,"o":"m 227 913 l 569 913 q 779 814 697 913 q 861 559 861 715 q 801 284 861 411 q 627 78 741 156 q 365 0 512 0 l 69 0 l 222 786 l 227 913 m 525 813 l 351 813 l 213 100 l 383 100 q 625 232 519 100 q 730 543 730 365 q 674 731 730 648 q 525 813 618 813 "},"ł":{"x_min":0,"x_max":0,"ha":353,"o":"m 376 1048 l 269 501 l 375 555 l 373 450 l 245 384 l 191 104 l 184 0 l 55 0 l 116 315 l 40 275 l 13 368 l 138 431 l 231 905 l 238 1033 l 376 1048 "},"ÿ":{"x_min":0,"x_max":0,"ha":625,"o":"m -144 -211 q -76 -225 -109 -225 q 131 -84 36 -225 l 193 5 l 181 34 l 106 568 l 68 683 l 204 701 l 273 222 l 275 122 l 320 218 l 469 466 q 476 683 534 576 l 602 701 q 623 627 619 663 q 619 555 627 591 q 596 487 611 519 q 558 416 581 455 l 219 -130 q 77 -283 158 -229 q -77 -337 -4 -337 q -147 -322 -112 -337 l -144 -211 m 330 875 q 309 820 330 843 q 261 798 288 798 q 212 820 233 798 q 191 875 191 843 q 212 928 191 905 q 261 951 233 951 q 309 928 288 951 q 330 875 330 905 m 586 875 q 565 820 586 843 q 516 798 544 798 q 468 820 488 798 q 447 875 447 843 q 468 928 447 905 q 516 951 488 951 q 565 928 544 951 q 586 875 586 905 "},"Ł":{"x_min":0,"x_max":0,"ha":592,"o":"m 12 368 l 154 440 l 222 786 l 227 913 l 370 913 l 293 513 l 497 618 l 495 512 l 270 395 l 213 101 l 566 101 l 519 0 l 69 0 l 131 322 l 40 275 l 12 368 "},"í":{"x_min":0,"x_max":0,"ha":363,"o":"m 311 698 l 194 104 l 188 0 l 58 0 l 166 555 l 173 683 l 311 698 m 331 1005 l 484 1005 l 215 779 l 141 807 l 331 1005 "},"ˆ":{"x_min":0,"x_max":0,"ha":558,"o":"m 244 1005 l 330 1005 l 484 807 l 408 779 l 277 908 l 125 779 l 54 807 l 244 1005 "},"w":{"x_min":0,"x_max":0,"ha":1028,"o":"m 286 -18 l 187 0 l 106 568 l 68 683 l 204 701 l 273 238 l 277 137 l 329 238 l 490 506 q 508 570 508 537 q 497 626 508 598 q 477 669 487 654 l 466 683 l 590 701 q 623 611 615 665 l 680 238 l 684 137 l 736 238 l 890 497 q 872 683 945 591 l 995 701 q 1030 586 1030 654 q 998 477 1030 529 l 693 -18 l 594 0 l 538 390 l 286 -18 "},"$":{"x_min":0,"x_max":0,"ha":628,"o":"m 479 1050 l 455 927 q 627 868 556 916 l 572 759 q 434 823 526 811 l 377 527 q 462 461 431 488 q 522 379 493 434 q 551 259 551 325 q 470 67 551 144 q 272 -16 390 -9 l 251 -130 l 180 -130 l 202 -15 q 100 8 147 -9 q 36 41 54 26 l 16 56 l 41 165 q 117 114 65 136 q 222 87 169 93 l 284 408 q 221 457 244 437 q 170 511 198 477 q 127 583 141 544 q 113 669 113 622 q 194 848 113 776 q 384 929 275 920 l 408 1050 l 479 1050 m 422 233 q 345 361 422 297 l 293 91 q 384 144 345 105 q 422 233 422 183 m 241 695 q 316 572 241 633 l 363 822 q 276 778 311 812 q 241 695 241 744 "},"∫":{"x_min":0,"x_max":0,"ha":458},"\\":{"x_min":0,"x_max":0,"ha":494,"o":"m 400 -338 l 6 912 l 112 912 l 494 -338 l 400 -338 "},"Ì":{"x_min":0,"x_max":0,"ha":410,"o":"m 370 913 l 213 104 l 208 0 l 69 0 l 222 786 l 227 913 l 370 913 m 104 1215 l 256 1215 l 411 1016 l 331 988 l 104 1215 "},"µ":{"x_min":0,"x_max":0,"ha":721},"Ç":{"x_min":0,"x_max":0,"ha":840,"o":"m 854 841 l 777 754 q 751 775 768 762 q 680 807 734 787 q 570 827 626 827 q 318 691 426 827 q 209 366 209 555 q 274 168 209 251 q 458 86 338 86 q 729 222 597 86 l 737 93 q 427 -18 597 -18 q 177 86 273 -18 q 81 352 81 191 q 221 766 81 600 q 581 932 361 932 q 726 909 658 932 q 825 863 794 886 l 854 841 m 383 -80 l 402 -9 l 443 -9 q 493 -57 455 -27 q 557 -120 531 -87 q 583 -194 583 -152 q 535 -287 583 -248 q 411 -326 487 -326 q 280 -283 336 -326 l 320 -215 q 413 -247 355 -247 q 488 -195 488 -247 q 473 -160 488 -177 q 428 -120 458 -143 q 383 -80 398 -97 "},"’":{"x_min":0,"x_max":0,"ha":347,"o":"m 152 583 l 113 632 q 182 713 147 661 q 218 800 218 765 q 188 845 218 838 q 214 908 188 883 q 277 933 240 933 q 328 909 308 933 q 348 848 348 884 q 293 711 348 786 q 152 583 237 637 "},"-":{"x_min":0,"x_max":0,"ha":419,"o":"m 54 394 l 402 394 l 375 291 l 54 291 l 54 394 "},"Q":{"x_min":0,"x_max":0,"ha":926,"o":"m 73 337 q 202 757 73 583 q 544 930 330 930 q 698 895 632 930 q 800 803 765 859 q 852 689 836 747 q 869 575 869 632 q 745 161 869 326 q 425 -16 620 -2 q 511 -66 445 -26 q 629 -126 577 -106 q 734 -145 680 -145 q 837 -128 782 -145 q 916 -84 893 -111 l 916 -205 q 836 -244 890 -230 q 736 -258 783 -258 q 566 -205 672 -258 q 362 -95 459 -152 l 334 -13 l 334 -12 q 141 104 209 6 q 73 337 73 202 m 530 829 q 309 699 413 829 q 204 354 204 569 q 261 157 204 234 q 411 80 318 80 q 579 153 501 80 q 698 333 657 226 q 740 548 740 440 q 684 750 740 670 q 530 829 629 829 "},"M":{"x_min":0,"x_max":0,"ha":1204,"o":"m 558 102 l 334 545 l 306 637 l 202 104 l 197 0 l 69 0 l 222 786 l 227 913 l 309 913 l 597 322 l 1070 913 l 1165 913 l 1008 104 l 1002 0 l 863 0 l 988 643 l 920 545 l 558 102 "},"C":{"x_min":0,"x_max":0,"ha":840,"o":"m 854 841 l 777 754 q 751 775 768 762 q 680 807 734 787 q 570 827 626 827 q 318 691 426 827 q 209 366 209 555 q 274 168 209 251 q 458 86 338 86 q 729 222 597 86 l 737 93 q 427 -18 597 -18 q 177 86 273 -18 q 81 352 81 191 q 221 766 81 600 q 581 932 361 932 q 726 909 658 932 q 825 863 794 886 l 854 841 "},"œ":{"x_min":0,"x_max":0,"ha":1068,"o":"m 1032 552 q 970 405 1032 465 q 821 320 909 345 q 627 295 733 295 l 627 281 q 667 143 627 198 q 788 88 707 88 q 893 115 841 88 q 969 168 944 141 l 995 194 l 995 79 q 980 63 991 73 q 940 31 969 52 q 861 -4 911 9 q 752 -18 811 -18 q 534 115 597 -18 q 273 -18 433 -18 q 163 8 209 -18 q 95 77 118 34 q 62 163 72 120 q 52 250 52 205 q 153 576 52 448 q 416 704 254 704 q 605 577 547 704 q 851 704 704 704 q 986 662 940 704 q 1032 552 1032 620 m 301 75 q 446 165 380 75 q 512 413 512 256 q 477 554 512 497 q 381 612 441 612 q 233 504 295 612 q 170 275 170 397 q 203 129 170 184 q 301 75 236 75 m 830 613 q 703 543 755 613 q 633 370 651 472 q 691 377 658 372 q 778 398 725 383 q 867 450 832 413 q 902 538 902 487 q 830 613 902 613 "},"!":{"x_min":0,"x_max":0,"ha":374,"o":"m 237 69 q 212 7 237 33 q 151 -18 187 -18 q 90 7 115 -18 q 65 69 65 33 q 90 129 65 104 q 151 154 116 154 q 211 129 186 154 q 237 69 237 104 m 402 1050 l 222 247 l 133 258 l 237 908 l 244 1033 l 402 1050 "},"ç":{"x_min":0,"x_max":0,"ha":618,"o":"m 600 670 l 555 570 q 532 581 556 572 q 470 599 508 590 q 405 608 431 608 q 238 511 301 608 q 175 300 175 413 q 214 145 175 206 q 340 84 254 84 q 422 102 381 84 q 487 139 462 119 q 527 177 512 159 l 544 194 l 544 73 q 519 48 536 63 q 444 7 502 33 q 320 -18 386 -18 q 120 63 188 -18 q 52 268 52 144 q 154 586 52 468 q 404 704 256 704 q 530 687 462 704 l 600 670 m 255 -80 l 275 -9 l 315 -9 q 366 -57 327 -27 q 429 -120 404 -87 q 455 -194 455 -152 q 407 -287 455 -248 q 283 -326 359 -326 q 152 -283 208 -326 l 193 -215 q 286 -247 227 -247 q 361 -195 361 -247 q 345 -160 361 -177 q 300 -120 330 -143 q 255 -80 270 -97 "},"È":{"x_min":0,"x_max":0,"ha":690,"o":"m 69 0 l 222 786 l 227 913 l 676 913 l 658 813 l 352 813 l 294 516 l 576 516 l 529 416 l 275 416 l 215 100 l 551 100 l 502 0 l 69 0 m 250 1215 l 402 1215 l 556 1016 l 477 988 l 250 1215 "},"ﬁ":{"x_min":0,"x_max":0,"ha":782,"o":"m 291 683 l 593 683 l 730 698 l 613 104 l 608 0 l 477 0 l 586 555 l 587 588 l 277 588 l 187 -15 q 90 -247 166 -159 q -98 -336 15 -334 l -130 -240 q 2 -181 -50 -240 q 70 -15 54 -123 l 161 588 l 73 588 l 88 683 l 175 683 l 188 770 q 257 927 202 862 q 382 1019 312 991 q 530 1047 452 1047 q 667 1025 607 1047 q 750 980 727 1002 l 772 958 l 704 848 q 681 875 695 859 q 619 918 666 891 q 525 945 572 945 q 372 899 426 945 q 306 782 318 852 l 291 683 "},"{":{"x_min":0,"x_max":0,"ha":418,"o":"m 55 379 l 69 451 q 131 465 104 451 q 171 500 158 479 q 190 535 184 520 q 198 562 195 550 l 252 841 q 345 995 272 943 q 516 1048 418 1048 l 500 962 q 363 837 387 962 l 311 563 q 279 486 302 523 q 237 433 256 450 l 218 415 q 247 248 269 363 l 190 -125 q 201 -213 180 -179 q 279 -250 222 -248 l 262 -336 q 112 -279 165 -333 q 79 -129 59 -226 l 140 251 q 131 340 150 304 q 55 379 112 376 "},"X":{"x_min":0,"x_max":0,"ha":703,"o":"m 793 912 l 451 461 l 622 0 l 483 0 l 370 311 l 355 361 l 319 304 l 93 0 l -41 0 l 315 469 l 190 815 l 122 913 l 288 913 l 395 622 l 411 575 l 443 625 l 657 912 l 793 912 "},"ô":{"x_min":0,"x_max":0,"ha":699,"o":"m 305 75 q 452 166 384 75 q 520 413 520 258 q 483 554 520 497 q 386 612 445 612 q 237 504 300 612 q 175 275 175 397 q 207 129 175 184 q 305 75 240 75 m 643 433 q 602 211 643 312 q 477 46 562 111 q 277 -18 393 -18 q 167 8 213 -18 q 97 77 120 34 q 63 163 73 120 q 52 250 52 206 q 151 577 52 451 q 420 704 250 704 q 579 631 515 704 q 643 433 643 558 m 404 1005 l 490 1005 l 644 807 l 568 779 l 437 908 l 284 779 l 213 807 l 404 1005 "},"¼":{"x_min":0,"x_max":0,"ha":925,"o":"m 431 98 l 744 462 l 829 434 l 768 125 l 865 125 l 833 50 l 754 50 l 741 -11 l 736 -80 l 625 -80 l 651 50 l 431 50 l 431 98 m 666 125 l 702 322 l 533 125 l 666 125 m 772 793 l 313 130 l 226 130 l 701 820 l 772 793 m 66 397 l 77 462 l 163 462 l 229 830 l 141 801 l 129 863 l 347 937 l 261 462 l 363 462 l 345 397 l 66 397 "},"#":{"x_min":0,"x_max":0,"ha":978,"o":"m 837 255 l 632 255 l 556 0 l 450 0 l 525 255 l 322 255 l 247 0 l 140 0 l 215 255 l 13 255 l 31 344 l 243 344 l 320 602 l 120 602 l 137 691 l 347 691 l 413 913 l 519 913 l 452 691 l 655 691 l 722 913 l 829 913 l 762 691 l 970 691 l 943 602 l 737 602 l 659 344 l 866 344 l 837 255 m 552 344 l 630 602 l 427 602 l 350 344 l 552 344 "},"Ê":{"x_min":0,"x_max":0,"ha":690,"o":"m 69 0 l 222 786 l 227 913 l 676 913 l 658 813 l 352 813 l 294 516 l 576 516 l 529 416 l 275 416 l 215 100 l 551 100 l 502 0 l 69 0 m 426 1215 l 512 1215 l 666 1016 l 590 988 l 459 1118 l 306 988 l 236 1016 l 426 1215 "},")":{"x_min":0,"x_max":0,"ha":428,"o":"m -33 -326 l -118 -297 q 132 52 33 -177 q 231 504 231 283 q 198 784 231 666 q 141 913 165 901 l 230 943 q 350 506 350 784 q 245 26 350 259 q -33 -326 141 -206 "},"Å":{"x_min":0,"x_max":0,"ha":763,"o":"m -86 0 l 443 915 l 530 932 l 662 152 l 701 0 l 561 0 l 522 238 l 176 238 l 40 0 l -86 0 m 413 658 l 234 344 l 504 344 l 450 658 l 444 720 l 413 658 m 574 1184 q 612 1098 612 1148 q 574 1012 612 1048 q 486 976 536 976 q 399 1012 436 976 q 362 1098 362 1048 q 399 1184 362 1148 q 486 1220 436 1220 q 574 1184 536 1220 m 561 1100 q 538 1151 561 1129 q 487 1173 516 1173 q 435 1152 456 1173 q 413 1100 413 1130 q 435 1045 413 1070 q 487 1020 456 1020 q 541 1045 520 1020 q 561 1100 561 1069 "},"Δ":{"x_min":0,"x_max":0,"ha":929},"ø":{"x_min":0,"x_max":0,"ha":689,"o":"m 415 704 q 508 682 461 704 l 597 825 l 673 804 l 566 634 q 633 433 633 561 q 591 211 633 313 q 465 45 548 109 q 272 -18 381 -18 q 170 4 215 -18 l 68 -159 l -2 -138 l 113 48 q 51 250 51 122 q 152 576 51 448 q 415 704 252 704 m 300 75 q 445 165 379 75 q 511 413 511 256 q 493 518 511 473 l 229 97 q 300 75 256 75 m 169 275 q 186 163 169 209 l 448 586 q 380 612 418 612 q 231 504 294 612 q 169 275 169 397 "},"â":{"x_min":0,"x_max":0,"ha":704,"o":"m 441 223 l 515 605 q 425 616 445 616 q 254 497 333 616 q 175 223 175 377 q 195 128 175 170 q 255 86 215 86 q 311 107 277 86 q 372 154 345 129 q 420 202 400 180 l 441 223 m 427 86 l 430 115 q 411 93 423 106 q 368 50 398 79 q 296 1 337 20 q 215 -18 255 -18 q 100 40 147 -18 q 52 202 52 98 q 97 441 52 327 q 226 628 141 555 q 415 701 311 701 q 554 692 473 701 q 647 683 636 683 l 556 213 q 547 92 540 140 q 595 0 555 44 l 472 -18 q 427 86 427 16 m 409 1005 l 495 1005 l 650 807 l 573 779 l 443 908 l 290 779 l 219 807 l 409 1005 "},"}":{"x_min":0,"x_max":0,"ha":418,"o":"m 398 451 l 384 379 q 322 365 350 379 q 281 330 295 351 q 262 295 268 309 q 254 268 256 280 l 177 -129 q 86 -283 158 -230 q -84 -336 13 -336 l -68 -250 q 66 -125 43 -250 l 143 266 q 174 343 151 306 q 216 397 197 380 l 236 415 q 222 434 230 422 q 203 484 213 445 q 201 563 193 523 l 254 837 q 165 962 277 962 l 181 1048 q 331 995 280 1048 q 362 841 381 943 l 308 562 q 306 536 304 554 q 313 499 308 518 q 341 466 319 480 q 398 451 363 451 "},"‰":{"x_min":0,"x_max":0,"ha":1599,"o":"m 465 850 q 529 704 529 788 q 465 557 529 619 q 316 495 401 495 q 170 557 233 495 q 108 704 108 619 q 170 850 108 788 q 316 912 233 912 q 465 850 401 912 m 447 707 q 407 794 447 757 q 318 832 368 832 q 227 795 265 832 q 190 707 190 758 q 227 614 190 657 q 318 572 265 572 q 411 613 376 572 q 447 707 447 655 m 986 336 q 1050 190 1050 275 q 986 43 1050 105 q 837 -18 922 -18 q 691 43 754 -18 q 629 190 629 105 q 691 336 629 275 q 837 398 754 398 q 986 336 922 398 m 968 193 q 928 280 968 243 q 838 318 888 318 q 748 281 786 318 q 711 193 711 244 q 748 100 711 143 q 838 58 786 58 q 932 100 897 58 q 968 193 968 141 m 1476 336 q 1540 190 1540 275 q 1476 43 1540 105 q 1327 -18 1412 -18 q 1182 43 1244 -18 q 1119 190 1119 105 q 1182 336 1119 275 q 1327 398 1244 398 q 1476 336 1412 398 m 1458 193 q 1418 280 1458 243 q 1329 318 1379 318 q 1238 281 1276 318 q 1201 193 1201 244 q 1238 100 1201 143 q 1329 58 1276 58 q 1423 100 1387 58 q 1458 193 1458 141 m 1018 898 l 234 0 l 118 0 l 933 936 l 1018 898 "},"Ä":{"x_min":0,"x_max":0,"ha":763,"o":"m -86 0 l 443 915 l 530 932 l 662 152 l 701 0 l 561 0 l 522 238 l 176 238 l 40 0 l -86 0 m 413 658 l 234 344 l 504 344 l 450 658 l 444 720 l 413 658 m 427 1086 q 406 1032 427 1054 q 358 1009 386 1009 q 309 1032 330 1009 q 288 1086 288 1054 q 309 1139 288 1116 q 358 1162 330 1162 q 406 1139 386 1162 q 427 1086 427 1116 m 683 1086 q 662 1032 683 1054 q 613 1009 641 1009 q 565 1032 586 1009 q 544 1086 544 1054 q 565 1139 544 1116 q 613 1162 586 1162 q 662 1139 641 1162 q 683 1086 683 1116 "},"¸":{"x_min":0,"x_max":0,"ha":558,"o":"m 202 -80 l 222 -9 l 262 -9 q 313 -57 275 -27 q 377 -120 351 -87 q 402 -194 402 -152 q 354 -287 402 -248 q 230 -326 306 -326 q 100 -283 155 -326 l 140 -215 q 233 -247 175 -247 q 308 -195 308 -247 q 293 -160 308 -177 q 247 -120 277 -143 q 202 -80 218 -97 "},"a":{"x_min":0,"x_max":0,"ha":704,"o":"m 441 223 l 515 605 q 425 616 445 616 q 254 497 333 616 q 175 223 175 377 q 195 128 175 170 q 255 86 215 86 q 311 107 277 86 q 372 154 345 129 q 420 202 400 180 l 441 223 m 427 86 l 430 115 q 411 93 423 106 q 368 50 398 79 q 296 1 337 20 q 215 -18 255 -18 q 100 40 147 -18 q 52 202 52 98 q 97 441 52 327 q 226 628 141 555 q 415 701 311 701 q 554 692 473 701 q 647 683 636 683 l 556 213 q 547 92 540 140 q 595 0 555 44 l 472 -18 q 427 86 427 16 "},"—":{"x_min":0,"x_max":0,"ha":943,"o":"m 43 394 l 908 394 l 880 291 l 43 291 l 43 394 "},"=":{"x_min":0,"x_max":0,"ha":667,"o":"m 77 281 l 577 281 l 550 179 l 77 179 l 77 281 m 77 511 l 591 511 l 563 408 l 77 408 l 77 511 "},"N":{"x_min":0,"x_max":0,"ha":1020,"o":"m 991 913 l 836 104 l 825 0 l 773 0 l 358 587 l 311 673 l 204 104 l 198 0 l 69 0 l 220 786 l 208 913 l 300 913 l 702 334 l 748 241 l 852 786 l 858 913 l 991 913 "},"˚":{"x_min":0,"x_max":0,"ha":722,"o":"m 442 988 q 480 902 480 952 q 442 816 480 852 q 354 780 404 780 q 267 816 304 780 q 230 902 230 852 q 267 988 230 952 q 354 1025 304 1025 q 442 988 404 1025 m 429 904 q 406 955 429 933 q 355 977 384 977 q 303 956 325 977 q 281 904 281 934 q 303 850 281 875 q 355 825 325 825 q 409 849 388 825 q 429 904 429 873 "},"ú":{"x_min":0,"x_max":0,"ha":758,"o":"m 695 683 l 605 213 q 595 92 588 141 q 641 0 602 43 l 518 -18 q 473 86 473 16 l 477 120 q 436 81 462 105 q 339 19 409 58 q 213 -19 269 -19 q 100 37 129 -19 q 86 186 70 94 l 162 581 l 169 683 l 298 683 l 213 231 q 259 94 186 94 q 360 126 302 94 q 455 191 418 158 l 491 223 l 559 579 l 568 683 l 695 683 m 525 1005 l 677 1005 l 408 779 l 334 807 l 525 1005 "},"⁄":{"x_min":0,"x_max":0,"ha":708,"o":"m 737 902 l 112 0 l -5 0 l 641 940 l 737 902 "},"2":{"x_min":0,"x_max":0,"ha":653,"o":"m 490 0 l 40 0 l 40 62 q 70 90 41 63 q 124 139 100 116 q 188 203 148 162 q 261 280 229 244 q 329 362 294 316 q 389 448 365 408 q 429 531 413 488 q 445 611 445 575 q 419 687 445 657 q 341 718 393 718 q 304 714 325 718 q 265 706 283 711 q 229 695 247 701 q 199 684 211 688 q 180 675 187 679 l 172 672 l 145 772 l 177 783 q 261 804 208 793 q 358 816 315 816 q 513 763 455 816 q 572 618 572 711 q 535 481 572 556 q 446 343 498 406 q 341 225 394 280 q 252 138 288 170 l 215 108 l 523 108 l 490 0 "},"ü":{"x_min":0,"x_max":0,"ha":758,"o":"m 695 683 l 605 213 q 595 92 588 141 q 641 0 602 43 l 518 -18 q 473 86 473 16 l 477 120 q 436 81 462 105 q 339 19 409 58 q 213 -19 269 -19 q 100 37 129 -19 q 86 186 70 94 l 162 581 l 169 683 l 298 683 l 213 231 q 259 94 186 94 q 360 126 302 94 q 455 191 418 158 l 491 223 l 559 579 l 568 683 l 695 683 m 387 876 q 366 822 387 844 q 318 800 345 800 q 269 822 290 800 q 248 876 248 844 q 269 929 248 907 q 318 952 290 952 q 366 929 345 952 q 387 876 387 907 m 643 876 q 622 822 643 844 q 573 800 601 800 q 525 822 545 800 q 504 876 504 844 q 525 929 504 907 q 573 952 545 952 q 622 929 601 952 q 643 876 643 907 "},"¯":{"x_min":0,"x_max":0,"ha":465,"o":"m 73 923 l 416 923 l 379 820 l 63 820 l 73 923 "},"Z":{"x_min":0,"x_max":0,"ha":756,"o":"m -34 0 l -34 34 l 531 732 l 604 807 l 133 807 l 183 913 l 811 913 l 811 879 l 243 180 l 172 105 l 691 105 l 672 0 l -34 0 "},"u":{"x_min":0,"x_max":0,"ha":758,"o":"m 695 683 l 605 213 q 595 92 588 141 q 641 0 602 43 l 518 -18 q 473 86 473 16 l 477 120 q 436 81 462 105 q 339 19 409 58 q 213 -19 269 -19 q 100 37 129 -19 q 86 186 70 94 l 162 581 l 169 683 l 298 683 l 213 231 q 259 94 186 94 q 360 126 302 94 q 455 191 418 158 l 491 223 l 559 579 l 568 683 l 695 683 "},"˜":{"x_min":0,"x_max":0,"ha":528,"o":"m 443 933 l 498 897 q 461 845 475 861 q 418 813 448 829 q 347 798 388 798 q 250 823 301 798 q 177 848 200 848 q 104 802 140 848 l 48 838 q 85 891 72 875 q 128 922 98 907 q 200 937 158 937 q 291 911 240 937 q 368 884 343 884 q 443 933 416 884 "},"Ó":{"x_min":0,"x_max":0,"ha":901,"o":"m 523 829 q 414 797 470 829 q 309 709 358 766 q 227 559 259 652 q 195 354 195 465 q 253 157 195 234 q 404 80 311 80 q 572 153 494 80 q 691 333 650 226 q 733 548 733 440 q 677 750 733 670 q 523 829 622 829 m 66 337 q 195 757 66 583 q 537 930 323 930 q 691 895 625 930 q 793 803 758 859 q 845 689 829 747 q 862 575 862 632 q 727 149 862 316 q 386 -18 593 -18 q 151 84 236 -18 q 66 337 66 186 m 668 1215 l 820 1215 l 551 988 l 477 1016 l 668 1215 "},"k":{"x_min":0,"x_max":0,"ha":667,"o":"m 626 15 l 498 -13 l 244 375 l 193 104 l 186 0 l 55 0 l 231 905 l 231 1033 l 376 1048 l 250 405 l 422 504 q 505 586 505 552 q 495 608 505 597 q 475 625 484 619 l 463 630 l 569 698 q 586 688 576 695 q 615 656 597 682 q 633 598 633 630 q 606 512 633 548 q 516 444 579 476 l 379 373 l 626 15 "},"ˇ":{"x_min":0,"x_max":0,"ha":558,"o":"m 312 779 l 220 779 l 66 977 l 145 1005 l 275 876 l 429 1005 l 502 977 l 312 779 "},"Ù":{"x_min":0,"x_max":0,"ha":921,"o":"m 777 913 l 908 913 l 801 365 q 668 87 768 193 q 416 -18 569 -18 q 263 9 326 -18 q 168 77 200 36 q 125 180 137 119 q 115 297 112 241 q 130 420 118 352 l 197 786 l 204 913 l 348 913 l 256 416 q 425 83 193 83 q 593 160 523 83 q 686 350 663 237 l 770 786 l 777 913 m 361 1215 l 513 1215 l 668 1016 l 588 988 l 361 1215 "},"Ÿ":{"x_min":0,"x_max":0,"ha":706,"o":"m 408 412 l 348 104 l 343 0 l 204 0 l 281 402 l 147 815 l 93 913 l 244 913 l 358 570 l 368 515 l 405 573 l 650 913 l 782 913 l 408 412 m 406 1086 q 386 1032 406 1054 q 337 1009 365 1009 q 288 1032 309 1009 q 268 1086 268 1054 q 288 1139 268 1116 q 337 1162 309 1162 q 386 1139 365 1162 q 406 1086 406 1116 m 662 1086 q 641 1032 662 1054 q 593 1009 620 1009 q 544 1032 565 1009 q 523 1086 523 1054 q 544 1139 523 1116 q 593 1162 565 1162 q 641 1139 620 1162 q 662 1086 662 1116 "},"€":{"x_min":0,"x_max":0,"ha":835,"o":"m 54 604 l 143 604 q 345 846 215 758 q 622 934 475 934 q 843 876 763 934 l 790 773 q 593 838 718 838 q 404 774 495 838 q 258 604 313 709 l 698 604 l 647 508 l 216 508 q 191 393 197 441 l 587 393 l 537 297 l 191 297 q 262 135 197 191 q 441 79 327 79 q 562 104 495 79 q 684 168 629 129 l 663 51 q 405 -18 540 -18 q 177 66 268 -18 q 81 297 87 151 l -4 297 l 12 393 l 87 393 q 111 508 90 430 l 34 508 l 54 604 "},"¢":{"x_min":0,"x_max":0,"ha":640,"o":"m 508 833 l 481 698 q 566 682 525 693 l 608 670 l 563 570 l 558 572 q 543 578 554 575 q 520 586 533 581 q 493 595 508 590 q 463 602 477 600 l 363 84 q 461 116 413 88 q 530 169 508 144 l 552 194 l 552 73 q 528 49 544 63 q 458 9 512 34 q 343 -18 404 -15 l 318 -151 l 248 -151 l 275 -13 q 115 80 169 2 q 61 268 61 158 q 163 586 61 468 q 412 704 265 704 l 413 704 l 438 833 l 508 833 m 183 300 q 210 166 183 223 q 295 91 237 109 l 394 607 q 240 502 298 597 q 183 300 183 408 "},"Ω":{"x_min":0,"x_max":0,"ha":511},"ß":{"x_min":0,"x_max":0,"ha":778,"o":"m 634 876 q 598 930 634 911 q 513 950 562 950 q 375 913 427 950 q 311 809 322 876 l 180 -15 q 84 -248 156 -162 q -101 -336 12 -334 l -133 -240 q 0 -181 -52 -240 q 68 -15 51 -123 l 161 588 l 73 588 l 88 683 l 175 683 l 190 784 q 300 980 209 915 q 508 1045 391 1045 q 681 1001 608 1045 q 755 888 755 957 q 720 781 755 836 q 643 688 684 726 q 566 609 601 651 q 530 537 530 568 q 559 464 530 504 q 620 392 587 425 q 682 311 654 359 q 711 216 711 263 q 634 51 711 120 q 434 -18 556 -18 q 352 -5 391 -18 q 294 19 312 6 l 276 31 l 306 131 q 440 76 363 76 q 544 104 498 76 q 590 190 590 131 q 562 261 590 223 q 502 328 534 298 q 441 400 469 358 q 413 483 413 441 q 436 578 413 533 q 492 659 459 623 q 556 727 525 694 q 611 799 588 761 q 634 876 634 837 "},"é":{"x_min":0,"x_max":0,"ha":624,"o":"m 587 552 q 526 404 587 465 q 376 316 465 343 q 183 290 287 290 l 183 276 q 222 141 183 194 q 344 88 262 88 q 446 115 394 88 q 525 168 498 141 l 552 194 l 552 73 q 537 58 548 68 q 497 28 526 48 q 420 -4 469 8 q 315 -18 372 -18 q 127 63 193 -18 q 61 268 61 145 q 158 574 61 444 q 406 704 255 704 q 541 662 495 704 q 587 552 587 620 m 388 613 q 261 543 313 613 q 191 370 209 472 q 250 377 216 372 q 336 398 283 383 q 425 450 390 413 q 461 538 461 487 q 388 613 461 613 m 468 1005 l 620 1005 l 351 779 l 277 807 l 468 1005 "},"s":{"x_min":0,"x_max":0,"ha":549,"o":"m 98 505 q 173 649 98 594 q 344 704 248 704 q 463 687 402 704 l 526 670 l 481 570 q 329 613 413 613 q 250 589 287 613 q 213 525 213 565 q 240 456 213 487 q 304 403 266 426 q 381 354 343 380 q 445 286 419 329 q 472 187 472 244 q 400 36 472 91 q 231 -18 327 -18 q 131 -3 179 -18 q 63 26 84 11 l 41 41 l 41 158 q 70 136 52 150 q 136 100 87 122 q 227 77 186 77 q 315 102 275 77 q 355 173 355 126 q 329 237 355 209 q 265 287 302 265 q 189 335 227 309 q 125 404 151 361 q 98 505 98 447 "},"B":{"x_min":0,"x_max":0,"ha":745,"o":"m 280 443 l 213 100 l 301 100 q 472 159 415 100 q 530 308 530 219 q 345 443 530 443 l 280 443 m 686 733 q 639 601 686 658 q 534 511 593 544 q 627 436 591 487 q 662 312 662 384 q 556 85 662 170 q 265 0 451 0 l 69 0 l 222 786 l 227 913 l 441 922 q 625 872 563 927 q 686 733 686 818 m 300 544 l 368 544 q 438 538 402 544 l 473 533 q 536 622 509 569 q 563 716 563 675 q 529 795 563 762 q 425 823 495 827 l 354 819 l 300 544 "},"…":{"x_min":0,"x_max":0,"ha":921,"o":"m 234 109 q 255 56 255 87 q 234 4 255 26 q 181 -18 212 -18 q 128 3 150 -18 q 106 56 106 25 q 129 109 106 87 q 181 130 151 130 q 234 109 212 130 m 518 109 q 540 56 540 87 q 518 4 540 26 q 466 -18 497 -18 q 413 3 436 -18 q 391 56 391 25 q 413 109 391 87 q 466 130 436 130 q 518 109 497 130 m 796 109 q 818 56 818 87 q 796 4 818 26 q 744 -18 775 -18 q 691 3 713 -18 q 669 56 669 25 q 691 109 669 87 q 744 130 713 130 q 796 109 775 130 "},"?":{"x_min":0,"x_max":0,"ha":571,"o":"m 226 227 l 126 270 q 125 277 126 272 q 125 284 125 281 q 161 397 125 338 q 247 509 197 456 q 349 613 298 561 q 436 723 400 665 q 472 834 472 782 q 435 906 472 879 q 352 933 398 933 q 258 906 311 933 q 202 870 205 879 l 173 986 q 245 1020 173 994 q 375 1045 316 1045 q 537 991 468 1045 q 607 844 607 936 q 567 714 607 782 q 471 588 527 647 q 359 475 415 530 q 263 361 302 419 q 223 254 223 302 q 226 227 223 236 m 262 69 q 237 7 262 33 q 176 -18 212 -18 q 115 7 140 -18 q 90 69 90 33 q 115 129 90 104 q 176 154 141 154 q 236 129 211 154 q 262 69 262 104 "},"H":{"x_min":0,"x_max":0,"ha":1000,"o":"m 961 913 l 804 104 l 798 0 l 659 0 l 740 416 l 275 416 l 213 104 l 208 0 l 69 0 l 222 786 l 227 913 l 370 913 l 295 527 l 761 527 l 812 786 l 818 913 l 961 913 "},"î":{"x_min":0,"x_max":0,"ha":363,"o":"m 311 698 l 194 104 l 188 0 l 58 0 l 166 555 l 173 683 l 311 698 m 219 1005 l 305 1005 l 459 807 l 383 779 l 252 908 l 100 779 l 29 807 l 219 1005 "},"c":{"x_min":0,"x_max":0,"ha":618,"o":"m 600 670 l 555 570 q 532 581 556 572 q 470 599 508 590 q 405 608 431 608 q 238 511 301 608 q 175 300 175 413 q 214 145 175 206 q 340 84 254 84 q 422 102 381 84 q 487 139 462 119 q 527 177 512 159 l 544 194 l 544 73 q 519 48 536 63 q 444 7 502 33 q 320 -18 386 -18 q 120 63 188 -18 q 52 268 52 144 q 154 586 52 468 q 404 704 256 704 q 530 687 462 704 l 600 670 "},"¶":{"x_min":0,"x_max":0,"ha":864,"o":"m 86 429 q 154 661 86 550 q 338 843 222 773 q 581 913 454 913 l 665 913 l 422 -338 l 338 -338 l 423 100 q 181 193 276 100 q 86 429 86 287 m 838 913 l 595 -338 l 512 -338 l 755 913 l 838 913 "},"≠":{"x_min":0,"x_max":0,"ha":667},"•":{"x_min":0,"x_max":0,"ha":589,"o":"m 293 526 q 423 472 369 526 q 477 343 477 419 q 423 211 477 265 q 293 156 369 156 q 161 211 215 156 q 106 343 106 265 q 161 472 106 419 q 293 526 215 526 "},"¥":{"x_min":0,"x_max":0,"ha":706,"o":"m 122 483 l 256 483 l 147 815 l 93 913 l 244 913 l 358 570 l 368 515 l 405 573 l 655 913 l 782 913 l 456 483 l 609 483 l 570 394 l 404 394 l 381 279 l 569 279 l 530 190 l 365 190 l 348 104 l 343 0 l 204 0 l 240 190 l 63 190 l 81 279 l 256 279 l 279 394 l 104 394 l 122 483 "},"(":{"x_min":0,"x_max":0,"ha":442,"o":"m 450 943 l 534 913 q 284 563 383 794 q 184 112 184 333 q 218 -167 184 -50 q 275 -297 251 -284 l 186 -326 q 66 109 66 -168 q 170 590 66 356 q 450 943 275 823 "},"U":{"x_min":0,"x_max":0,"ha":921,"o":"m 777 913 l 908 913 l 801 365 q 668 87 768 193 q 416 -18 569 -18 q 263 9 326 -18 q 168 77 200 36 q 125 180 137 119 q 115 297 112 241 q 130 420 118 352 l 197 786 l 204 913 l 348 913 l 256 416 q 425 83 193 83 q 593 160 523 83 q 686 350 663 237 l 770 786 l 777 913 "},"◊":{"x_min":0,"x_max":0,"ha":661},"Ñ":{"x_min":0,"x_max":0,"ha":1020,"o":"m 991 913 l 836 104 l 825 0 l 773 0 l 358 587 l 311 673 l 204 104 l 198 0 l 69 0 l 220 786 l 208 913 l 300 913 l 702 334 l 748 241 l 852 786 l 858 913 l 991 913 m 794 1143 l 850 1107 q 813 1054 826 1070 q 770 1023 800 1038 q 698 1008 740 1008 q 602 1033 652 1008 q 529 1058 551 1058 q 455 1012 491 1058 l 400 1048 q 436 1100 423 1084 q 479 1132 450 1116 q 551 1147 509 1147 q 643 1120 591 1147 q 719 1094 694 1094 q 794 1143 768 1094 "},"F":{"x_min":0,"x_max":0,"ha":663,"o":"m 222 786 l 227 913 l 676 913 l 658 813 l 352 813 l 294 516 l 576 516 l 529 416 l 275 416 l 213 104 l 208 0 l 69 0 l 222 786 "},":":{"x_min":0,"x_max":0,"ha":358,"o":"m 227 69 q 202 7 227 33 q 141 -18 177 -18 q 80 7 105 -18 q 55 69 55 33 q 81 129 55 104 q 141 154 106 154 q 202 129 176 154 q 227 69 227 104 m 297 452 q 272 391 297 416 q 211 365 247 365 q 150 391 175 365 q 125 452 125 416 q 150 512 125 487 q 211 537 176 537 q 271 512 245 537 q 297 452 297 487 "},"Û":{"x_min":0,"x_max":0,"ha":921,"o":"m 777 913 l 908 913 l 801 365 q 668 87 768 193 q 416 -18 569 -18 q 263 9 326 -18 q 168 77 200 36 q 125 180 137 119 q 115 297 112 241 q 130 420 118 352 l 197 786 l 204 913 l 348 913 l 256 416 q 425 83 193 83 q 593 160 523 83 q 686 350 663 237 l 770 786 l 777 913 m 537 1215 l 623 1215 l 777 1016 l 701 988 l 570 1118 l 418 988 l 347 1016 l 537 1215 "},"*":{"x_min":0,"x_max":0,"ha":558,"o":"m 30 762 l 72 848 l 229 848 l 130 1020 l 225 1027 l 304 890 l 404 1063 l 456 984 l 377 848 l 577 848 l 536 762 l 377 762 l 477 590 l 383 583 l 304 719 l 204 547 l 151 626 l 229 762 l 30 762 "},"†":{"x_min":0,"x_max":0,"ha":676,"o":"m 243 -340 l 127 -340 l 308 588 l 129 588 l 148 683 l 327 683 l 369 902 l 488 918 l 443 683 l 669 683 l 608 588 l 423 588 l 243 -340 "},"°":{"x_min":0,"x_max":0,"ha":554,"o":"m 500 963 q 570 800 570 894 q 500 636 570 705 q 334 566 429 566 q 171 636 241 566 q 101 800 101 705 q 171 963 101 894 q 334 1032 241 1032 q 500 963 429 1032 m 479 802 q 435 900 479 858 q 336 941 391 941 q 235 900 277 941 q 193 802 193 859 q 234 699 193 745 q 336 652 276 652 q 440 698 401 652 q 479 802 479 744 "},"V":{"x_min":0,"x_max":0,"ha":808,"o":"m 890 913 l 350 -18 l 269 0 l 140 761 l 90 913 l 247 913 l 345 302 l 352 186 l 411 302 l 761 913 l 890 913 "},"å":{"x_min":0,"x_max":0,"ha":704,"o":"m 441 223 l 515 605 q 425 616 445 616 q 254 497 333 616 q 175 223 175 377 q 195 128 175 170 q 255 86 215 86 q 311 107 277 86 q 372 154 345 129 q 420 202 400 180 l 441 223 m 427 86 l 430 115 q 411 93 423 106 q 368 50 398 79 q 296 1 337 20 q 215 -18 255 -18 q 100 40 147 -18 q 52 202 52 98 q 97 441 52 327 q 226 628 141 555 q 415 701 311 701 q 554 692 473 701 q 647 683 636 683 l 556 213 q 547 92 540 140 q 595 0 555 44 l 472 -18 q 427 86 427 16 m 531 975 q 569 888 569 938 q 531 802 569 838 q 443 766 493 766 q 356 802 393 766 q 319 888 319 838 q 356 975 319 938 q 443 1011 393 1011 q 531 975 493 1011 m 518 890 q 495 941 518 919 q 444 963 473 963 q 392 942 413 963 q 370 890 370 920 q 392 836 370 861 q 444 811 413 811 q 497 835 477 811 q 518 890 518 859 "},"0":{"x_min":0,"x_max":0,"ha":653,"o":"m 413 816 q 579 743 526 816 q 633 555 633 669 q 613 345 633 444 q 554 162 594 245 q 444 30 513 79 q 283 -18 375 -18 q 127 47 191 -18 q 62 240 62 112 q 102 520 62 391 q 223 733 141 650 q 413 816 305 816 m 406 725 q 298 670 345 725 q 227 532 251 615 q 192 372 204 450 q 180 233 180 295 q 211 114 180 158 q 297 70 241 70 q 402 122 356 70 q 470 254 447 175 q 505 408 494 333 q 516 545 516 483 q 406 725 516 725 "},"”":{"x_min":0,"x_max":0,"ha":590,"o":"m 152 583 l 113 632 q 182 713 147 661 q 218 800 218 765 q 188 845 218 838 q 214 908 188 883 q 277 933 240 933 q 328 909 308 933 q 348 848 348 884 q 293 711 348 786 q 152 583 237 637 m 395 583 l 356 632 q 425 713 390 661 q 461 800 461 765 q 431 845 461 838 q 457 908 431 883 q 520 933 483 933 q 571 909 551 933 q 591 848 591 884 q 536 711 591 786 q 395 583 480 637 "},"¾":{"x_min":0,"x_max":0,"ha":939,"o":"m 787 793 l 329 130 l 241 130 l 716 820 l 787 793 m 445 98 l 758 462 l 843 434 l 782 125 l 879 125 l 847 50 l 768 50 l 755 -11 l 750 -80 l 638 -80 l 665 50 l 445 50 l 445 98 m 680 125 l 716 322 l 547 125 l 680 125 m 63 397 l 56 468 q 66 467 59 468 q 77 466 73 466 q 148 470 113 466 q 222 483 183 473 q 286 514 262 493 q 309 565 309 536 q 277 616 309 595 q 201 643 245 636 l 220 698 q 264 717 251 711 q 298 736 277 723 q 327 766 319 750 q 336 804 336 783 q 317 846 336 833 q 273 859 298 859 q 225 851 252 859 q 180 836 197 843 l 163 829 l 145 891 q 290 926 215 926 q 393 897 347 926 q 440 813 440 869 q 323 690 440 733 q 391 650 365 682 q 416 576 416 618 q 321 442 416 488 q 105 395 226 395 l 63 397 "},"@":{"x_min":0,"x_max":0,"ha":1253,"o":"m 876 577 q 801 126 801 163 q 816 58 801 73 q 1014 211 944 111 q 1084 436 1084 311 q 984 711 1084 595 q 700 826 884 826 q 434 738 558 826 q 241 517 311 650 q 172 247 172 384 q 190 102 172 169 q 251 -24 209 36 q 370 -125 293 -84 q 552 -179 447 -165 l 470 -268 q 282 -198 363 -248 q 154 -78 201 -148 q 84 69 106 -8 q 61 230 61 147 q 108 475 61 354 q 238 694 155 597 q 447 852 322 791 q 716 913 573 913 q 975 845 865 913 q 1138 672 1086 776 q 1190 448 1190 568 q 1057 117 1190 252 q 736 -51 923 -18 q 697 16 715 -34 q 682 94 679 68 l 654 68 q 578 14 626 41 q 481 -12 530 -12 q 363 45 408 -12 q 319 200 319 104 q 382 438 319 323 q 558 628 445 554 q 801 702 670 702 q 913 682 851 702 l 876 577 m 680 162 l 765 608 q 542 489 637 608 q 447 236 447 370 q 474 138 447 177 q 548 100 501 100 q 680 162 607 100 "},"ö":{"x_min":0,"x_max":0,"ha":699,"o":"m 305 75 q 452 166 384 75 q 520 413 520 258 q 483 554 520 497 q 386 612 445 612 q 237 504 300 612 q 175 275 175 397 q 207 129 175 184 q 305 75 240 75 m 643 433 q 602 211 643 312 q 477 46 562 111 q 277 -18 393 -18 q 167 8 213 -18 q 97 77 120 34 q 63 163 73 120 q 52 250 52 206 q 151 577 52 451 q 420 704 250 704 q 579 631 515 704 q 643 433 643 558 m 379 876 q 358 822 379 844 q 309 800 337 800 q 261 822 281 800 q 240 876 240 844 q 261 929 240 907 q 309 952 281 952 q 358 929 337 952 q 379 876 379 907 m 634 876 q 613 822 634 844 q 565 800 593 800 q 516 822 537 800 q 495 876 495 844 q 516 929 495 907 q 565 952 537 952 q 613 929 593 952 q 634 876 634 907 "},"i":{"x_min":0,"x_max":0,"ha":363,"o":"m 217 838 q 195 890 195 861 q 216 941 195 919 q 268 962 237 962 q 317 941 295 962 q 338 890 338 919 q 317 838 338 861 q 268 815 295 815 q 217 838 238 815 m 311 698 l 194 104 l 188 0 l 58 0 l 166 555 l 173 683 l 311 698 "},"≤":{"x_min":0,"x_max":0,"ha":313},"Õ":{"x_min":0,"x_max":0,"ha":901,"o":"m 523 829 q 414 797 470 829 q 309 709 358 766 q 227 559 259 652 q 195 354 195 465 q 253 157 195 234 q 404 80 311 80 q 572 153 494 80 q 691 333 650 226 q 733 548 733 440 q 677 750 733 670 q 523 829 622 829 m 66 337 q 195 757 66 583 q 537 930 323 930 q 691 895 625 930 q 793 803 758 859 q 845 689 829 747 q 862 575 862 632 q 727 149 862 316 q 386 -18 593 -18 q 151 84 236 -18 q 66 337 66 186 m 758 1143 l 813 1107 q 777 1054 790 1070 q 734 1023 763 1038 q 662 1008 704 1008 q 566 1033 616 1008 q 493 1058 515 1058 q 419 1012 455 1058 l 363 1048 q 400 1100 387 1084 q 443 1132 413 1116 q 515 1147 473 1147 q 606 1120 555 1147 q 683 1094 658 1094 q 758 1143 732 1094 "},"þ":{"x_min":0,"x_max":0,"ha":736,"o":"m 388 1038 l 312 645 l 288 565 q 324 603 301 580 q 409 663 347 626 q 523 701 470 701 q 632 643 588 701 q 676 480 676 586 q 638 240 676 351 q 515 56 600 130 q 313 -18 430 -18 q 235 -7 281 -18 q 187 6 188 2 l 141 -229 l 134 -333 l 5 -333 l 244 895 l 234 1009 l 388 1038 m 275 455 l 205 98 q 313 76 252 76 q 486 193 419 76 q 554 461 554 309 q 530 558 554 526 q 472 590 506 590 q 392 556 441 590 q 308 488 343 522 l 275 455 "},"]":{"x_min":0,"x_max":0,"ha":386,"o":"m 169 919 l 186 1005 l 409 1005 l 194 -95 l -27 -95 l -9 -8 l 101 -8 l 281 919 l 169 919 "},"m":{"x_min":0,"x_max":0,"ha":1151,"o":"m 584 0 l 455 0 l 540 451 q 494 588 568 588 q 393 556 451 588 q 300 491 336 525 l 262 459 l 194 104 l 186 0 l 58 0 l 166 555 l 156 669 l 294 698 l 277 563 q 302 586 286 572 q 359 631 319 601 q 447 682 398 662 q 540 702 497 702 q 673 561 670 702 q 707 594 680 570 q 766 641 734 618 q 845 684 797 665 q 943 702 894 702 q 1057 645 1027 702 q 1070 497 1086 588 l 994 101 l 987 0 l 858 0 l 943 451 q 897 588 970 588 q 821 570 862 588 q 750 529 780 552 q 693 484 720 506 q 659 454 666 462 l 591 101 l 584 0 "},"ﬃ":{"x_min":0,"x_max":0,"ha":1201,"o":"m 711 683 l 1012 683 l 1150 698 l 1033 104 l 1027 0 l 897 0 l 1005 555 l 1007 588 l 697 588 l 607 -15 q 510 -247 586 -159 q 320 -336 434 -334 l 288 -240 q 421 -181 369 -240 q 490 -15 473 -123 l 580 588 l 277 588 l 187 -15 q 90 -247 166 -159 q -98 -336 15 -334 l -130 -240 q 2 -181 -50 -240 q 70 -15 54 -123 l 161 588 l 73 588 l 88 683 l 175 683 l 188 770 q 257 927 202 862 q 382 1019 312 991 q 530 1047 452 1047 q 741 986 658 1047 q 950 1047 832 1047 q 1086 1025 1026 1047 q 1169 980 1147 1002 l 1191 958 l 1123 848 q 1100 875 1115 859 q 1038 918 1086 891 q 944 945 991 945 q 791 899 845 945 q 726 782 737 852 l 711 683 m 291 683 l 594 683 l 608 770 q 654 897 618 838 q 525 945 594 945 q 372 899 426 945 q 306 782 318 852 l 291 683 "},"8":{"x_min":0,"x_max":0,"ha":653,"o":"m 273 -18 q 110 37 173 -18 q 47 179 47 93 q 60 258 47 220 q 91 322 73 295 q 143 381 109 350 q 204 431 177 412 q 273 480 230 451 q 155 697 155 595 q 229 866 155 804 q 402 927 304 927 q 552 877 498 927 q 605 758 605 826 q 550 613 605 680 q 425 498 495 547 q 558 256 558 373 q 471 59 558 137 q 273 -18 384 -18 m 325 429 q 158 206 158 312 q 195 117 158 152 q 293 81 233 81 q 401 127 358 81 q 444 225 444 173 q 422 306 444 265 q 381 370 401 347 q 325 429 361 394 m 369 551 q 495 736 495 640 q 466 813 495 782 q 384 844 436 844 q 300 808 330 844 q 269 729 269 772 q 369 551 269 648 "},"ž":{"x_min":0,"x_max":0,"ha":656,"o":"m -2 0 l -2 26 l 391 531 l 445 588 l 95 588 l 141 683 l 632 683 l 632 657 l 238 151 l 184 94 l 597 94 l 579 0 l -2 0 m 433 779 l 341 779 l 187 977 l 266 1005 l 395 876 l 550 1005 l 623 977 l 433 779 "},"R":{"x_min":0,"x_max":0,"ha":756,"o":"m 208 913 l 466 913 q 640 850 572 913 q 708 680 708 787 q 641 479 708 565 q 461 365 573 393 l 693 0 l 540 0 l 338 343 l 240 341 l 194 104 l 188 0 l 50 0 l 202 786 l 208 913 m 333 811 l 261 444 l 338 444 q 513 507 451 444 q 575 675 575 570 q 540 777 575 744 q 430 811 505 811 l 333 811 "},"á":{"x_min":0,"x_max":0,"ha":704,"o":"m 441 223 l 515 605 q 425 616 445 616 q 254 497 333 616 q 175 223 175 377 q 195 128 175 170 q 255 86 215 86 q 311 107 277 86 q 372 154 345 129 q 420 202 400 180 l 441 223 m 427 86 l 430 115 q 411 93 423 106 q 368 50 398 79 q 296 1 337 20 q 215 -18 255 -18 q 100 40 147 -18 q 52 202 52 98 q 97 441 52 327 q 226 628 141 555 q 415 701 311 701 q 554 692 473 701 q 647 683 636 683 l 556 213 q 547 92 540 140 q 595 0 555 44 l 472 -18 q 427 86 427 16 m 522 1005 l 675 1005 l 405 779 l 331 807 l 522 1005 "},"×":{"x_min":0,"x_max":0,"ha":596,"o":"m 475 105 l 301 277 l 131 108 l 59 180 l 229 351 l 52 526 l 140 576 l 298 419 l 473 595 l 526 502 l 370 347 l 543 173 l 475 105 "},"o":{"x_min":0,"x_max":0,"ha":699,"o":"m 305 75 q 452 166 384 75 q 520 413 520 258 q 483 554 520 497 q 386 612 445 612 q 237 504 300 612 q 175 275 175 397 q 207 129 175 184 q 305 75 240 75 m 643 433 q 602 211 643 312 q 477 46 562 111 q 277 -18 393 -18 q 167 8 213 -18 q 97 77 120 34 q 63 163 73 120 q 52 250 52 206 q 151 577 52 451 q 420 704 250 704 q 579 631 515 704 q 643 433 643 558 "},"5":{"x_min":0,"x_max":0,"ha":653,"o":"m 604 798 l 558 690 l 312 690 l 273 508 l 276 508 q 452 431 390 500 q 515 263 515 363 q 392 -25 515 88 q 84 -140 269 -140 q 51 -138 62 -140 l 40 -44 q 156 -29 100 -44 q 268 15 213 -15 q 355 105 322 45 q 388 245 388 165 q 338 371 388 325 q 205 418 288 418 l 147 415 l 229 798 l 604 798 "},"õ":{"x_min":0,"x_max":0,"ha":699,"o":"m 305 75 q 452 166 384 75 q 520 413 520 258 q 483 554 520 497 q 386 612 445 612 q 237 504 300 612 q 175 275 175 397 q 207 129 175 184 q 305 75 240 75 m 643 433 q 602 211 643 312 q 477 46 562 111 q 277 -18 393 -18 q 167 8 213 -18 q 97 77 120 34 q 63 163 73 120 q 52 250 52 206 q 151 577 52 451 q 420 704 250 704 q 579 631 515 704 q 643 433 643 558 m 607 933 l 662 897 q 625 845 638 861 q 582 813 612 829 q 511 798 552 798 q 414 823 465 798 q 341 848 363 848 q 268 802 304 848 l 212 838 q 249 891 236 875 q 292 922 262 907 q 363 937 322 937 q 455 911 404 937 q 531 884 506 884 q 607 933 580 884 "},"7":{"x_min":0,"x_max":0,"ha":653,"o":"m 134 -154 l 27 -133 l 519 690 l 138 690 l 118 798 l 676 798 l 691 766 l 134 -154 "},"K":{"x_min":0,"x_max":0,"ha":776,"o":"m 694 0 l 548 0 l 284 462 l 213 104 l 208 0 l 69 0 l 222 786 l 229 913 l 372 913 l 287 479 l 616 823 l 675 913 l 861 913 l 420 473 l 694 0 "},",":{"x_min":0,"x_max":0,"ha":347,"o":"m 31 -193 l -6 -144 q 61 -63 26 -115 q 97 23 97 -11 q 68 69 97 62 q 93 131 68 106 q 156 156 119 156 q 207 132 187 156 q 227 72 227 108 q 172 -64 227 9 q 31 -193 116 -138 "},"d":{"x_min":0,"x_max":0,"ha":721,"o":"m 462 227 l 536 607 q 425 615 470 615 q 290 545 350 615 q 204 389 230 476 q 177 226 177 302 q 202 121 177 158 q 262 84 227 84 q 325 106 288 84 q 391 156 362 129 q 441 205 419 183 l 462 227 m 740 1050 l 577 213 q 568 92 561 141 q 613 0 575 43 l 490 -18 q 445 86 445 16 l 450 119 q 428 96 443 111 q 379 52 413 81 q 302 2 345 22 q 219 -18 259 -18 q 103 42 151 -18 q 55 206 55 102 q 156 554 55 406 q 434 701 258 701 l 554 693 l 600 907 l 600 1034 l 740 1050 "},"¨":{"x_min":0,"x_max":0,"ha":533,"o":"m 211 876 q 190 822 211 844 q 141 800 169 800 q 93 822 113 800 q 72 876 72 844 q 93 929 72 907 q 141 952 113 952 q 190 929 169 952 q 211 876 211 907 m 466 876 q 445 822 466 844 q 397 800 425 800 q 348 822 369 800 q 327 876 327 844 q 348 929 327 907 q 397 952 369 952 q 445 929 425 952 q 466 876 466 907 "},"Ô":{"x_min":0,"x_max":0,"ha":901,"o":"m 523 829 q 414 797 470 829 q 309 709 358 766 q 227 559 259 652 q 195 354 195 465 q 253 157 195 234 q 404 80 311 80 q 572 153 494 80 q 691 333 650 226 q 733 548 733 440 q 677 750 733 670 q 523 829 622 829 m 66 337 q 195 757 66 583 q 537 930 323 930 q 691 895 625 930 q 793 803 758 859 q 845 689 829 747 q 862 575 862 632 q 727 149 862 316 q 386 -18 593 -18 q 151 84 236 -18 q 66 337 66 186 m 555 1215 l 641 1215 l 795 1016 l 719 988 l 588 1118 l 436 988 l 365 1016 l 555 1215 "},"E":{"x_min":0,"x_max":0,"ha":690,"o":"m 69 0 l 222 786 l 227 913 l 676 913 l 658 813 l 352 813 l 294 516 l 576 516 l 529 416 l 275 416 l 215 100 l 551 100 l 502 0 l 69 0 "},"Y":{"x_min":0,"x_max":0,"ha":706,"o":"m 408 412 l 348 104 l 343 0 l 204 0 l 281 402 l 147 815 l 93 913 l 244 913 l 358 570 l 368 515 l 405 573 l 650 913 l 782 913 l 408 412 "},"\"":{"x_min":0,"x_max":0,"ha":521,"o":"m 179 754 l 184 909 l 313 932 l 247 593 l 145 591 l 179 754 m 401 754 l 406 909 l 536 932 l 469 593 l 368 591 l 401 754 "},"‹":{"x_min":0,"x_max":0,"ha":540,"o":"m 491 572 l 205 341 l 401 113 l 330 25 l 55 343 l 454 661 l 491 572 "},"˙":{"x_min":0,"x_max":0,"ha":258,"o":"m 182 921 q 204 869 204 900 q 182 816 204 838 q 130 794 161 794 q 77 816 100 794 q 55 869 55 838 q 77 921 55 900 q 130 943 100 943 q 182 921 161 943 "},"ê":{"x_min":0,"x_max":0,"ha":624,"o":"m 587 552 q 526 404 587 465 q 376 316 465 343 q 183 290 287 290 l 183 276 q 222 141 183 194 q 344 88 262 88 q 446 115 394 88 q 525 168 498 141 l 552 194 l 552 73 q 537 58 548 68 q 497 28 526 48 q 420 -4 469 8 q 315 -18 372 -18 q 127 63 193 -18 q 61 268 61 145 q 158 574 61 444 q 406 704 255 704 q 541 662 495 704 q 587 552 587 620 m 388 613 q 261 543 313 613 q 191 370 209 472 q 250 377 216 372 q 336 398 283 383 q 425 450 390 413 q 461 538 461 487 q 388 613 461 613 m 355 1005 l 441 1005 l 595 807 l 519 779 l 388 908 l 236 779 l 165 807 l 355 1005 "},"Ï":{"x_min":0,"x_max":0,"ha":410,"o":"m 370 913 l 213 104 l 208 0 l 69 0 l 222 786 l 227 913 l 370 913 m 255 1086 q 234 1032 255 1054 q 186 1009 213 1009 q 137 1032 158 1009 q 116 1086 116 1054 q 137 1139 116 1116 q 186 1162 158 1162 q 234 1139 213 1162 q 255 1086 255 1116 m 511 1086 q 490 1032 511 1054 q 441 1009 469 1009 q 393 1032 413 1009 q 372 1086 372 1054 q 393 1139 372 1116 q 441 1162 413 1162 q 490 1139 469 1162 q 511 1086 511 1116 "},"„":{"x_min":0,"x_max":0,"ha":590,"o":"m 31 -193 l -6 -144 q 61 -63 26 -115 q 97 23 97 -11 q 68 69 97 62 q 93 131 68 106 q 156 156 119 156 q 207 132 187 156 q 227 72 227 108 q 172 -64 227 9 q 31 -193 116 -138 m 275 -193 l 236 -144 q 304 -63 269 -115 q 340 23 340 -11 q 311 69 340 62 q 336 131 311 106 q 400 156 362 156 q 450 132 430 156 q 470 72 470 108 q 415 -64 470 9 q 275 -193 359 -138 "},"Â":{"x_min":0,"x_max":0,"ha":763,"o":"m -86 0 l 443 915 l 530 932 l 662 152 l 701 0 l 561 0 l 522 238 l 176 238 l 40 0 l -86 0 m 413 658 l 234 344 l 504 344 l 450 658 l 444 720 l 413 658 m 452 1215 l 538 1215 l 693 1016 l 616 988 l 486 1118 l 333 988 l 262 1016 l 452 1215 "},"Í":{"x_min":0,"x_max":0,"ha":410,"o":"m 370 913 l 213 104 l 208 0 l 69 0 l 222 786 l 227 913 l 370 913 m 393 1215 l 545 1215 l 276 988 l 202 1016 l 393 1215 "},"´":{"x_min":0,"x_max":0,"ha":469,"o":"m 276 1005 l 429 1005 l 159 779 l 86 807 l 276 1005 "},"ì":{"x_min":0,"x_max":0,"ha":363,"o":"m 311 698 l 194 104 l 188 0 l 58 0 l 166 555 l 173 683 l 311 698 m 43 1005 l 195 1005 l 350 807 l 270 779 l 43 1005 "},"±":{"x_min":0,"x_max":0,"ha":654,"o":"m 279 194 l 279 397 l 80 397 l 80 500 l 279 500 l 279 707 l 376 680 l 376 500 l 583 500 l 555 397 l 376 397 l 376 194 l 279 194 m 120 95 l 551 95 l 523 0 l 120 0 l 120 95 "},"Ú":{"x_min":0,"x_max":0,"ha":921,"o":"m 777 913 l 908 913 l 801 365 q 668 87 768 193 q 416 -18 569 -18 q 263 9 326 -18 q 168 77 200 36 q 125 180 137 119 q 115 297 112 241 q 130 420 118 352 l 197 786 l 204 913 l 348 913 l 256 416 q 425 83 193 83 q 593 160 523 83 q 686 350 663 237 l 770 786 l 777 913 m 650 1215 l 802 1215 l 533 988 l 459 1016 l 650 1215 "},"|":{"x_min":0,"x_max":0,"ha":315,"o":"m 206 1050 l 206 -352 l 108 -352 l 108 1050 l 206 1050 "},"§":{"x_min":0,"x_max":0,"ha":583,"o":"m 454 940 l 454 -26 q 381 -184 454 -127 q 208 -240 309 -240 q 109 -222 156 -240 q 34 -182 61 -204 q -8 -143 8 -161 l -23 -125 l -5 -29 q 68 -105 25 -73 q 158 -144 112 -137 l 158 845 q 231 985 158 934 q 404 1036 305 1036 q 525 1012 466 1036 q 611 963 583 988 l 637 940 l 619 838 q 454 940 554 926 m 250 788 l 250 -145 q 339 -90 316 -133 q 362 37 362 -48 l 362 941 q 277 897 304 933 q 250 788 250 861 "},"Ý":{"x_min":0,"x_max":0,"ha":706,"o":"m 408 412 l 348 104 l 343 0 l 204 0 l 281 402 l 147 815 l 93 913 l 244 913 l 358 570 l 368 515 l 405 573 l 650 913 l 782 913 l 408 412 m 544 1215 l 697 1215 l 427 988 l 354 1016 l 544 1215 "},"b":{"x_min":0,"x_max":0,"ha":724,"o":"m 241 1034 l 381 1050 l 287 577 q 306 598 294 586 q 351 638 319 611 q 426 683 383 665 q 512 701 469 701 q 624 643 579 701 q 669 480 669 584 q 631 243 669 354 q 508 57 593 133 q 308 -18 423 -18 q 210 -4 254 -18 q 123 32 166 8 q 75 59 80 56 l 237 907 l 241 1034 m 266 459 l 200 105 q 316 72 245 72 q 480 193 413 72 q 547 461 547 315 q 521 563 547 529 q 459 597 495 597 q 375 562 423 597 q 297 494 327 527 l 266 459 "},"q":{"x_min":0,"x_max":0,"ha":726,"o":"m 472 227 l 545 605 l 522 608 q 461 611 497 609 q 401 613 426 613 q 252 491 319 613 q 186 226 186 368 q 211 122 186 158 q 273 86 237 86 q 356 121 306 86 q 438 191 406 156 l 472 227 m 505 -195 l 498 -333 l 362 -333 l 448 106 q 229 -18 331 -18 q 112 42 161 -18 q 63 206 63 102 q 104 445 63 336 q 233 628 144 555 q 444 701 322 701 q 568 692 483 701 q 676 683 654 683 l 505 -195 "},"Ω":{"x_min":0,"x_max":0,"ha":511},"Ö":{"x_min":0,"x_max":0,"ha":901,"o":"m 523 829 q 414 797 470 829 q 309 709 358 766 q 227 559 259 652 q 195 354 195 465 q 253 157 195 234 q 404 80 311 80 q 572 153 494 80 q 691 333 650 226 q 733 548 733 440 q 677 750 733 670 q 523 829 622 829 m 66 337 q 195 757 66 583 q 537 930 323 930 q 691 895 625 930 q 793 803 758 859 q 845 689 829 747 q 862 575 862 632 q 727 149 862 316 q 386 -18 593 -18 q 151 84 236 -18 q 66 337 66 186 m 530 1086 q 509 1032 530 1054 q 461 1009 488 1009 q 412 1032 433 1009 q 391 1086 391 1054 q 412 1139 391 1116 q 461 1162 433 1162 q 509 1139 488 1162 q 530 1086 530 1116 m 786 1086 q 765 1032 786 1054 q 716 1009 744 1009 q 668 1032 688 1009 q 647 1086 647 1054 q 668 1139 647 1116 q 716 1162 688 1162 q 765 1139 744 1162 q 786 1086 786 1116 "},"ﬂ":{"x_min":0,"x_max":0,"ha":772,"o":"m 425 588 l 277 588 l 187 -15 q 90 -247 166 -159 q -98 -336 15 -334 l -130 -240 q 2 -181 -50 -240 q 70 -15 54 -123 l 161 588 l 73 588 l 88 683 l 175 683 l 188 770 q 256 927 202 862 q 379 1019 311 991 q 526 1047 448 1047 q 592 1038 555 1047 q 689 1011 629 1030 q 784 983 750 993 l 611 104 l 604 0 l 475 0 l 651 904 q 520 945 579 945 q 368 899 422 945 q 304 782 313 852 l 288 683 l 483 683 l 425 588 "},"z":{"x_min":0,"x_max":0,"ha":649,"o":"m -2 0 l -2 26 l 391 531 l 445 588 l 95 588 l 141 683 l 632 683 l 632 657 l 238 151 l 184 94 l 597 94 l 579 0 l -2 0 "},"™":{"x_min":0,"x_max":0,"ha":1114,"o":"m 88 912 l 101 979 l 530 979 l 518 912 l 351 912 l 275 520 l 270 456 l 163 456 l 252 912 l 88 912 m 754 501 l 612 765 l 565 520 l 561 456 l 475 456 l 562 904 l 566 979 l 620 979 l 787 652 l 1058 979 l 1118 979 l 1029 520 l 1025 456 l 918 456 l 979 769 l 754 501 "},"ã":{"x_min":0,"x_max":0,"ha":704,"o":"m 441 223 l 515 605 q 425 616 445 616 q 254 497 333 616 q 175 223 175 377 q 195 128 175 170 q 255 86 215 86 q 311 107 277 86 q 372 154 345 129 q 420 202 400 180 l 441 223 m 427 86 l 430 115 q 411 93 423 106 q 368 50 398 79 q 296 1 337 20 q 215 -18 255 -18 q 100 40 147 -18 q 52 202 52 98 q 97 441 52 327 q 226 628 141 555 q 415 701 311 701 q 554 692 473 701 q 647 683 636 683 l 556 213 q 547 92 540 140 q 595 0 555 44 l 472 -18 q 427 86 427 16 m 612 933 l 668 897 q 631 845 644 861 q 588 813 618 829 q 516 798 558 798 q 420 823 470 798 q 347 848 369 848 q 273 802 309 848 l 218 838 q 254 891 241 875 q 297 922 268 907 q 369 937 327 937 q 461 911 409 937 q 537 884 512 884 q 612 933 586 884 "},"æ":{"x_min":0,"x_max":0,"ha":1018,"o":"m 982 552 q 920 405 982 465 q 771 320 859 345 q 577 295 683 295 l 577 281 q 617 143 577 198 q 738 88 657 88 q 843 115 791 88 q 919 168 894 141 l 945 194 l 945 79 q 930 63 941 73 q 890 31 919 52 q 811 -4 861 9 q 702 -18 761 -18 q 553 28 612 -18 q 470 152 494 75 q 419 97 450 127 q 359 42 388 68 q 289 0 329 16 q 209 -18 250 -18 q 97 40 143 -18 q 52 202 52 98 q 155 551 52 398 q 413 704 258 704 q 541 694 468 704 q 627 684 613 684 q 720 694 657 684 q 801 704 784 704 q 936 662 890 704 q 982 552 982 620 m 455 268 q 575 598 455 468 q 482 609 533 602 q 423 616 431 616 q 252 497 326 616 q 179 216 179 379 q 248 86 179 86 q 322 121 275 86 q 400 186 369 156 q 455 243 431 216 l 455 268 m 783 613 q 656 543 708 613 q 586 370 604 472 q 644 377 611 372 q 731 398 677 383 q 820 450 784 413 q 855 538 855 487 q 783 613 855 613 "},"®":{"x_min":0,"x_max":0,"ha":1097,"o":"m 783 216 l 672 216 l 545 395 l 506 395 l 506 275 q 513 216 506 265 l 411 216 l 411 632 l 402 705 l 552 705 q 672 666 623 705 q 722 555 722 626 q 698 474 722 512 q 629 416 675 436 l 783 216 m 540 451 q 599 484 572 451 q 626 555 626 516 q 600 620 626 594 q 540 647 573 647 l 506 647 l 506 451 l 540 451 m 1020 473 q 884 118 1020 254 q 526 -18 748 -18 q 203 111 330 -18 q 76 433 76 240 q 215 786 76 651 q 583 922 355 922 q 897 793 773 922 q 1020 473 1020 665 m 934 455 q 827 740 934 629 q 554 851 720 851 q 279 736 393 851 q 165 450 165 622 q 277 168 165 280 q 556 55 388 55 q 823 170 712 55 q 934 455 934 284 "},"É":{"x_min":0,"x_max":0,"ha":690,"o":"m 69 0 l 222 786 l 227 913 l 676 913 l 658 813 l 352 813 l 294 516 l 576 516 l 529 416 l 275 416 l 215 100 l 551 100 l 502 0 l 69 0 m 538 1215 l 691 1215 l 422 988 l 348 1016 l 538 1215 "},"~":{"x_min":0,"x_max":0,"ha":803,"o":"m 734 373 q 544 287 651 287 q 382 331 472 287 q 244 376 293 376 q 108 316 176 376 l 68 401 q 254 477 155 477 q 411 433 325 477 q 552 388 497 388 q 693 455 619 388 l 734 373 "},"³":{"x_min":0,"x_max":0,"ha":485,"o":"m 63 397 l 56 468 q 66 467 59 468 q 77 466 73 466 q 148 470 113 466 q 222 483 183 473 q 286 514 262 493 q 309 565 309 536 q 277 616 309 595 q 201 643 245 636 l 220 698 q 264 717 251 711 q 298 736 277 723 q 327 766 319 750 q 336 804 336 783 q 317 846 336 833 q 273 859 298 859 q 225 851 252 859 q 180 836 197 843 l 163 829 l 145 891 q 290 926 215 926 q 393 897 347 926 q 440 813 440 869 q 323 690 440 733 q 391 650 365 682 q 416 576 416 618 q 321 442 416 488 q 105 395 226 395 l 63 397 "},"¡":{"x_min":0,"x_max":0,"ha":367,"o":"m 187 838 q 212 900 187 875 q 273 926 237 926 q 334 900 309 926 q 359 838 359 875 q 334 779 359 804 q 273 754 308 754 q 213 779 238 754 q 187 838 187 804 m 22 -141 l 202 661 l 291 650 l 187 0 l 180 -125 l 22 -141 "},"[":{"x_min":0,"x_max":0,"ha":400,"o":"m 469 1005 l 452 919 l 340 919 l 159 -8 l 272 -8 l 254 -95 l 31 -95 l 245 1005 l 469 1005 "},"L":{"x_min":0,"x_max":0,"ha":592,"o":"m 69 0 l 222 786 l 227 913 l 370 913 l 215 105 l 568 105 l 519 0 l 69 0 "}," ":{"x_min":0,"x_max":0,"ha":347},"∑":{"x_min":0,"x_max":0,"ha":658},"%":{"x_min":0,"x_max":0,"ha":1108,"o":"m 465 850 q 529 704 529 788 q 465 557 529 619 q 316 495 401 495 q 170 557 233 495 q 108 704 108 619 q 170 850 108 788 q 316 912 233 912 q 465 850 401 912 m 447 707 q 407 794 447 757 q 318 832 368 832 q 227 795 265 832 q 190 707 190 758 q 227 614 190 657 q 318 572 265 572 q 411 613 376 572 q 447 707 447 655 m 986 336 q 1050 190 1050 275 q 986 43 1050 105 q 837 -18 922 -18 q 691 43 754 -18 q 629 190 629 105 q 691 336 629 275 q 837 398 754 398 q 986 336 922 398 m 968 193 q 928 280 968 243 q 838 318 888 318 q 748 281 786 318 q 711 193 711 244 q 748 100 711 143 q 838 58 786 58 q 932 100 897 58 q 968 193 968 141 m 1018 898 l 234 0 l 118 0 l 933 936 l 1018 898 "},"P":{"x_min":0,"x_max":0,"ha":715,"o":"m 215 913 l 466 913 q 647 859 580 913 q 715 707 715 804 q 609 444 715 547 q 326 341 504 341 l 247 341 l 201 104 l 195 0 l 56 0 l 209 786 l 215 913 m 340 811 l 268 444 l 345 444 q 520 513 458 444 q 581 691 581 581 q 437 811 581 811 l 340 811 "},"∏":{"x_min":0,"x_max":0,"ha":589},"À":{"x_min":0,"x_max":0,"ha":763,"o":"m -86 0 l 443 915 l 530 932 l 662 152 l 701 0 l 561 0 l 522 238 l 176 238 l 40 0 l -86 0 m 413 658 l 234 344 l 504 344 l 450 658 l 444 720 l 413 658 m 276 1215 l 429 1215 l 583 1016 l 504 988 l 276 1215 "},"_":{"x_min":0,"x_max":0,"ha":625,"o":"m 580 -104 l 538 -187 l -80 -187 l -80 -104 l 580 -104 "},"ñ":{"x_min":0,"x_max":0,"ha":751,"o":"m 584 0 l 455 0 l 540 451 q 494 588 568 588 q 393 556 451 588 q 300 491 336 525 l 262 459 l 194 104 l 186 0 l 58 0 l 166 555 l 156 669 l 294 698 l 273 563 q 299 586 281 572 q 357 631 316 601 q 447 682 398 662 q 540 702 497 702 q 654 645 625 702 q 668 497 683 588 l 591 101 l 584 0 m 647 933 l 702 897 q 666 845 679 861 q 622 813 652 829 q 551 798 593 798 q 454 823 505 798 q 381 848 404 848 q 308 802 344 848 l 252 838 q 289 891 276 875 q 332 922 302 907 q 404 937 362 937 q 495 911 444 937 q 572 884 547 884 q 647 933 620 884 "},"+":{"x_min":0,"x_max":0,"ha":654,"o":"m 276 97 l 276 300 l 77 300 l 77 402 l 276 402 l 276 611 l 379 583 l 379 402 l 586 402 l 558 300 l 379 300 l 379 97 l 276 97 "},"‚":{"x_min":0,"x_max":0,"ha":347,"o":"m 31 -193 l -6 -144 q 61 -63 26 -115 q 97 23 97 -11 q 68 69 97 62 q 93 131 68 106 q 156 156 119 156 q 207 132 187 156 q 227 72 227 108 q 172 -64 227 9 q 31 -193 116 -138 "},"½":{"x_min":0,"x_max":0,"ha":925,"o":"m 758 793 l 300 130 l 212 130 l 687 820 l 758 793 m 66 394 l 77 459 l 163 459 l 229 827 l 141 798 l 129 861 l 347 934 l 261 459 l 363 459 l 345 394 l 66 394 m 827 -81 l 509 -81 l 509 -41 l 527 -25 q 772 315 772 195 q 718 380 772 380 q 644 366 688 380 q 595 348 600 351 l 577 418 q 729 450 659 450 q 836 416 794 450 q 879 322 879 383 q 843 212 879 273 q 765 104 808 151 q 686 26 722 58 l 651 -5 l 850 -5 l 827 -81 "},"Æ":{"x_min":0,"x_max":0,"ha":1047,"o":"m 426 0 l 473 244 l 188 244 l 29 0 l -88 0 l 516 913 l 1033 913 l 1015 813 l 709 813 l 651 516 l 933 516 l 886 416 l 632 416 l 572 100 l 908 100 l 859 0 l 426 0 m 491 341 l 579 786 l 581 843 l 251 341 l 491 341 "},"Ë":{"x_min":0,"x_max":0,"ha":690,"o":"m 69 0 l 222 786 l 227 913 l 676 913 l 658 813 l 352 813 l 294 516 l 576 516 l 529 416 l 275 416 l 215 100 l 551 100 l 502 0 l 69 0 m 401 1086 q 380 1032 401 1054 q 331 1009 359 1009 q 283 1032 304 1009 q 262 1086 262 1054 q 283 1139 262 1116 q 331 1162 304 1162 q 380 1139 359 1162 q 401 1086 401 1116 m 657 1086 q 636 1032 657 1054 q 587 1009 615 1009 q 538 1032 559 1009 q 518 1086 518 1054 q 538 1139 518 1116 q 587 1162 559 1162 q 636 1139 615 1162 q 657 1086 657 1116 "},"'":{"x_min":0,"x_max":0,"ha":299,"o":"m 179 754 l 184 909 l 313 932 l 247 593 l 145 591 l 179 754 "},"Š":{"x_min":0,"x_max":0,"ha":628,"o":"m 622 890 l 566 788 q 401 829 484 829 q 291 791 336 829 q 245 695 245 752 q 277 605 245 648 q 353 528 308 562 q 443 458 398 494 q 520 370 488 422 q 551 255 551 318 q 463 58 551 134 q 251 -18 376 -18 q 123 -2 181 -18 q 41 27 65 12 l 16 43 l 41 148 q 58 137 40 147 q 102 115 76 127 q 168 94 129 104 q 243 84 208 84 q 364 122 308 84 q 420 233 420 161 q 388 325 420 281 q 311 402 356 368 q 222 472 266 436 q 145 559 177 508 q 113 669 113 609 q 204 857 113 783 q 409 930 294 930 q 518 920 465 930 q 597 900 570 911 l 622 890 m 461 988 l 369 988 l 215 1187 l 294 1215 l 423 1086 l 577 1215 l 651 1187 l 461 988 "},"ª":{"x_min":0,"x_max":0,"ha":563,"o":"m 388 558 l 444 855 q 417 859 441 855 q 386 862 393 862 q 264 774 319 862 q 209 566 209 686 q 255 470 209 470 q 319 492 286 470 q 370 536 352 513 l 388 558 m 416 388 q 379 466 379 419 q 226 390 306 390 q 134 434 172 390 q 97 555 97 477 q 177 815 97 701 q 377 929 256 929 q 495 922 430 929 l 561 913 q 481 494 481 502 q 522 404 481 440 l 416 388 "},"Œ":{"x_min":0,"x_max":0,"ha":1140,"o":"m 1126 913 l 1108 813 l 802 813 l 744 516 l 1026 516 l 979 416 l 725 416 l 665 100 l 1001 100 l 952 0 l 391 0 q 236 32 302 0 q 135 118 170 65 q 83 226 100 170 q 66 337 66 281 q 198 756 66 598 q 556 913 330 913 l 1126 913 m 405 83 l 534 83 l 670 786 l 670 832 l 525 832 q 356 759 434 832 q 237 579 279 686 q 195 363 195 472 q 251 162 195 241 q 405 83 306 83 "},"ﬀ":{"x_min":0,"x_max":0,"ha":839,"o":"m 697 588 l 607 -15 q 510 -247 586 -159 q 320 -336 434 -334 l 288 -240 q 421 -181 369 -240 q 490 -15 473 -123 l 580 588 l 277 588 l 187 -15 q 90 -247 166 -159 q -98 -336 15 -334 l -130 -240 q 2 -181 -50 -240 q 70 -15 54 -123 l 161 588 l 73 588 l 88 683 l 175 683 l 188 770 q 257 927 202 862 q 382 1019 312 991 q 530 1047 452 1047 q 715 1002 637 1047 q 855 1047 773 1047 q 1007 1000 934 1047 l 944 904 q 851 937 905 937 q 773 904 808 937 q 730 809 738 870 l 711 683 l 905 683 l 848 588 l 697 588 m 291 683 l 594 683 l 609 784 q 643 905 619 855 q 525 945 587 945 q 372 899 426 945 q 306 782 318 852 l 291 683 "},"˛":{"x_min":0,"x_max":0,"ha":383,"o":"m 215 0 l 304 0 q 263 -36 287 -13 q 199 -109 240 -58 q 155 -193 158 -161 q 179 -231 152 -218 q 236 -243 205 -244 q 288 -240 266 -241 l 280 -322 q 254 -323 273 -323 q 104 -295 150 -323 q 62 -209 58 -268 q 104 -111 66 -163 q 179 -30 143 -59 l 215 0 "},"ð":{"x_min":0,"x_max":0,"ha":743,"o":"m 736 944 l 620 897 q 707 563 707 770 q 682 353 707 454 q 609 168 658 252 q 479 32 561 83 q 291 -18 397 -18 q 170 7 220 -18 q 96 76 120 33 q 62 160 72 119 q 52 245 52 201 q 161 563 52 425 q 411 701 270 701 q 505 686 461 701 q 569 658 550 672 l 587 643 q 505 851 569 766 l 311 773 l 295 833 l 459 900 q 329 968 402 945 l 393 1050 q 579 948 508 1022 l 748 1016 l 736 944 m 586 534 q 566 555 579 543 q 510 589 552 568 q 422 611 468 611 q 243 496 313 611 q 173 262 173 381 q 211 124 173 177 q 316 70 248 70 q 437 120 383 70 q 522 245 491 170 q 570 396 554 320 q 586 534 586 472 "},"T":{"x_min":0,"x_max":0,"ha":688,"o":"m 76 808 l 97 913 l 762 913 l 741 808 l 479 808 l 343 104 l 337 0 l 198 0 l 354 808 l 76 808 "},"š":{"x_min":0,"x_max":0,"ha":549,"o":"m 98 505 q 173 649 98 594 q 344 704 248 704 q 463 687 402 704 l 526 670 l 481 570 q 329 613 413 613 q 250 589 287 613 q 213 525 213 565 q 240 456 213 487 q 304 403 266 426 q 381 354 343 380 q 445 286 419 329 q 472 187 472 244 q 400 36 472 91 q 231 -18 327 -18 q 131 -3 179 -18 q 63 26 84 11 l 41 41 l 41 158 q 70 136 52 150 q 136 100 87 122 q 227 77 186 77 q 315 102 275 77 q 355 173 355 126 q 329 237 355 209 q 265 287 302 265 q 189 335 227 309 q 125 404 151 361 q 98 505 98 447 m 386 779 l 294 779 l 140 977 l 219 1005 l 348 876 l 502 1005 l 576 977 l 386 779 "},"Þ":{"x_min":0,"x_max":0,"ha":699,"o":"m 343 830 l 450 830 q 631 775 563 830 q 698 623 698 720 q 593 361 698 463 q 309 258 487 258 l 231 258 l 202 104 l 195 0 l 56 0 l 227 880 l 240 1036 l 386 1050 l 343 830 m 326 745 l 248 347 l 326 347 q 502 422 438 347 q 565 608 565 497 q 528 709 565 672 q 423 745 491 745 l 326 745 "},"j":{"x_min":0,"x_max":0,"ha":368,"o":"m 228 838 q 206 890 206 861 q 227 941 206 919 q 279 962 248 962 q 328 941 306 962 q 350 890 350 919 q 328 838 350 861 q 279 815 306 815 q 228 838 250 815 m 313 698 l 175 -15 q 72 -250 147 -163 q -116 -337 -1 -336 l -145 -233 q 58 -15 16 -233 l 169 555 q 176 683 175 644 l 313 698 "},"1":{"x_min":0,"x_max":0,"ha":514,"o":"m 29 0 l 45 91 l 177 91 l 283 679 l 141 634 l 125 719 l 426 818 l 294 91 l 454 91 l 425 0 l 29 0 "},"›":{"x_min":0,"x_max":0,"ha":542,"o":"m 333 341 l 138 572 l 209 661 l 486 343 l 86 25 l 48 113 l 333 341 "},"ı":{"x_min":0,"x_max":0,"ha":363,"o":"m 311 698 l 194 104 l 188 0 l 58 0 l 166 555 l 173 683 l 311 698 "},"ä":{"x_min":0,"x_max":0,"ha":704,"o":"m 441 223 l 515 605 q 425 616 445 616 q 254 497 333 616 q 175 223 175 377 q 195 128 175 170 q 255 86 215 86 q 311 107 277 86 q 372 154 345 129 q 420 202 400 180 l 441 223 m 427 86 l 430 115 q 411 93 423 106 q 368 50 398 79 q 296 1 337 20 q 215 -18 255 -18 q 100 40 147 -18 q 52 202 52 98 q 97 441 52 327 q 226 628 141 555 q 415 701 311 701 q 554 692 473 701 q 647 683 636 683 l 556 213 q 547 92 540 140 q 595 0 555 44 l 472 -18 q 427 86 427 16 m 384 876 q 363 822 384 844 q 315 800 343 800 q 266 822 287 800 q 245 876 245 844 q 266 929 245 907 q 315 952 287 952 q 363 929 343 952 q 384 876 384 907 m 640 876 q 619 822 640 844 q 570 800 598 800 q 522 822 543 800 q 501 876 501 844 q 522 929 501 907 q 570 952 543 952 q 619 929 598 952 q 640 876 640 907 "},"<":{"x_min":0,"x_max":0,"ha":513,"o":"m 450 573 l 208 341 l 450 112 l 394 22 l 54 343 l 394 663 l 450 573 "},"£":{"x_min":0,"x_max":0,"ha":763,"o":"m 632 -141 l -58 -141 q -18 -77 -55 -141 q 68 105 19 -12 q 140 330 118 223 l 150 379 l 65 379 l 83 473 l 168 473 l 226 770 q 279 894 240 838 q 370 982 319 950 q 473 1030 422 1013 q 568 1047 525 1047 q 704 1025 644 1047 q 787 980 765 1002 l 809 958 l 745 866 q 721 888 737 875 q 657 923 705 901 q 562 945 609 945 q 421 897 480 945 q 350 782 362 848 l 288 473 l 576 473 l 516 379 l 270 379 l 259 318 q 207 134 241 223 q 150 2 173 45 l 125 -38 l 676 -38 l 632 -141 "},"¹":{"x_min":0,"x_max":0,"ha":417,"o":"m 91 394 l 102 459 l 188 459 l 254 827 l 166 798 l 154 861 l 372 934 l 286 459 l 388 459 l 370 394 l 91 394 "},"t":{"x_min":0,"x_max":0,"ha":518,"o":"m 350 823 l 309 683 l 522 683 l 461 588 l 290 588 q 209 152 209 170 q 270 93 209 93 q 434 170 338 93 l 434 52 q 236 -18 333 -18 q 131 19 173 -18 q 90 131 90 56 q 173 588 90 156 l 90 588 l 109 683 l 193 683 q 205 745 197 704 q 216 808 213 787 l 350 823 "},"¬":{"x_min":0,"x_max":0,"ha":743},"ù":{"x_min":0,"x_max":0,"ha":758,"o":"m 695 683 l 605 213 q 595 92 588 141 q 641 0 602 43 l 518 -18 q 473 86 473 16 l 477 120 q 436 81 462 105 q 339 19 409 58 q 213 -19 269 -19 q 100 37 129 -19 q 86 186 70 94 l 162 581 l 169 683 l 298 683 l 213 231 q 259 94 186 94 q 360 126 302 94 q 455 191 418 158 l 491 223 l 559 579 l 568 683 l 695 683 m 236 1005 l 388 1005 l 543 807 l 463 779 l 236 1005 "},"W":{"x_min":0,"x_max":0,"ha":1225,"o":"m 1319 913 l 816 -18 l 733 0 l 647 500 l 347 -18 l 273 0 l 144 761 l 94 913 l 251 913 l 350 302 l 356 186 l 415 302 l 620 661 l 604 761 l 554 913 l 711 913 l 809 302 l 816 186 l 875 302 l 1190 913 l 1319 913 "},"ï":{"x_min":0,"x_max":0,"ha":363,"o":"m 311 698 l 194 104 l 188 0 l 58 0 l 166 555 l 173 683 l 311 698 m 194 876 q 173 822 194 844 q 125 800 152 800 q 76 822 97 800 q 55 876 55 844 q 76 929 55 907 q 125 952 97 952 q 173 929 152 952 q 194 876 194 907 m 450 876 q 429 822 450 844 q 380 800 408 800 q 331 822 352 800 q 311 876 311 844 q 331 929 311 907 q 380 952 352 952 q 429 929 408 952 q 450 876 450 907 "},">":{"x_min":0,"x_max":0,"ha":513,"o":"m 295 341 l 54 573 l 109 663 l 450 343 l 109 22 l 54 112 l 295 341 "},"v":{"x_min":0,"x_max":0,"ha":624,"o":"m 286 -18 l 187 0 l 106 568 l 68 683 l 204 701 l 273 238 l 277 137 l 329 238 l 469 468 q 505 579 505 529 q 502 610 505 594 q 495 638 500 626 q 486 661 491 651 q 479 677 481 672 l 476 683 l 602 701 q 626 607 626 645 q 562 423 626 523 l 286 -18 "},"û":{"x_min":0,"x_max":0,"ha":758,"o":"m 695 683 l 605 213 q 595 92 588 141 q 641 0 602 43 l 518 -18 q 473 86 473 16 l 477 120 q 436 81 462 105 q 339 19 409 58 q 213 -19 269 -19 q 100 37 129 -19 q 86 186 70 94 l 162 581 l 169 683 l 298 683 l 213 231 q 259 94 186 94 q 360 126 302 94 q 455 191 418 158 l 491 223 l 559 579 l 568 683 l 695 683 m 412 1005 l 498 1005 l 652 807 l 576 779 l 445 908 l 293 779 l 222 807 l 412 1005 "},"Ò":{"x_min":0,"x_max":0,"ha":901,"o":"m 523 829 q 414 797 470 829 q 309 709 358 766 q 227 559 259 652 q 195 354 195 465 q 253 157 195 234 q 404 80 311 80 q 572 153 494 80 q 691 333 650 226 q 733 548 733 440 q 677 750 733 670 q 523 829 622 829 m 66 337 q 195 757 66 583 q 537 930 323 930 q 691 895 625 930 q 793 803 758 859 q 845 689 829 747 q 862 575 862 632 q 727 149 862 316 q 386 -18 593 -18 q 151 84 236 -18 q 66 337 66 186 m 379 1215 l 531 1215 l 686 1016 l 607 988 l 379 1215 "},"&":{"x_min":0,"x_max":0,"ha":978,"o":"m 547 430 l 597 531 q 807 579 723 538 q 933 666 890 620 l 961 556 q 851 486 902 511 q 854 437 854 454 q 726 107 854 233 q 416 -18 598 -18 q 261 13 334 -18 q 136 119 187 45 q 84 295 84 193 q 138 487 84 397 q 290 622 191 577 q 240 780 240 691 q 341 968 240 888 q 584 1048 441 1048 q 691 1033 636 1048 q 775 1002 745 1018 l 804 987 l 762 877 q 700 915 762 884 q 579 945 637 945 q 434 892 497 945 q 372 766 372 838 q 386 692 372 733 q 413 627 400 651 l 429 602 l 426 591 q 275 472 333 552 q 218 304 218 391 q 281 143 218 200 q 433 87 345 87 q 641 184 551 87 q 732 418 732 281 l 727 444 q 547 430 629 420 "},"˝":{"x_min":0,"x_max":0,"ha":813,"o":"m 276 1005 l 429 1005 l 159 779 l 86 807 l 276 1005 m 530 1005 l 683 1005 l 413 779 l 340 807 l 530 1005 "},"Ð":{"x_min":0,"x_max":0,"ha":914,"o":"m 72 519 l 170 519 l 222 786 l 227 913 l 569 913 q 779 814 697 913 q 861 559 861 715 q 801 284 861 411 q 627 78 741 156 q 365 0 512 0 l 69 0 l 150 416 l 51 416 l 72 519 m 527 826 l 354 826 l 294 519 l 476 519 l 427 416 l 275 416 l 212 93 l 381 93 q 624 229 518 93 q 730 543 730 365 q 675 738 730 650 q 527 826 620 826 "},"I":{"x_min":0,"x_max":0,"ha":410,"o":"m 370 913 l 213 104 l 208 0 l 69 0 l 222 786 l 227 913 l 370 913 "},"G":{"x_min":0,"x_max":0,"ha":903,"o":"m 851 840 l 775 752 q 748 773 765 761 q 677 807 732 786 q 568 827 623 827 q 317 691 423 827 q 211 366 211 555 q 273 168 211 251 q 455 86 336 86 q 602 115 509 86 l 648 348 l 641 451 l 791 451 l 712 27 q 596 4 705 27 q 425 -18 487 -18 q 176 86 270 -18 q 81 352 81 191 q 220 766 81 600 q 579 932 358 932 q 725 909 657 932 q 822 863 793 886 l 851 840 "},"`":{"x_min":0,"x_max":0,"ha":469,"o":"m 59 1005 l 212 1005 l 366 807 l 287 779 l 59 1005 "},"·":{"x_min":0,"x_max":0,"ha":358,"o":"m 258 340 q 234 278 258 304 q 175 252 209 252 q 115 278 140 252 q 91 340 91 304 q 115 400 91 375 q 175 425 140 425 q 234 400 209 425 q 258 340 258 375 "},"r":{"x_min":0,"x_max":0,"ha":543,"o":"m 591 679 l 534 565 q 455 581 483 581 q 320 482 390 581 q 233 297 250 383 l 195 104 l 188 0 l 58 0 l 166 555 l 156 670 l 294 698 l 266 526 q 280 548 273 534 q 300 579 287 562 q 327 613 313 595 q 360 647 341 630 q 398 676 379 663 q 443 696 418 688 q 493 704 468 704 q 555 691 520 704 l 591 679 "},"¿":{"x_min":0,"x_max":0,"ha":576,"o":"m 409 686 l 509 643 q 510 636 509 641 q 511 629 511 632 q 475 516 511 575 q 388 404 438 456 q 286 300 337 352 q 200 190 236 248 q 163 79 163 131 q 200 7 163 34 q 283 -19 237 -19 q 377 7 325 -19 q 433 43 430 34 l 462 -72 q 391 -106 462 -80 q 261 -131 319 -131 q 98 -77 168 -131 q 29 69 29 -22 q 68 199 29 131 q 164 325 108 266 q 277 438 220 383 q 372 552 333 494 q 412 659 412 611 q 409 686 412 677 m 373 844 q 398 906 373 880 q 459 932 423 932 q 520 906 495 932 q 545 844 545 880 q 520 784 545 809 q 459 759 494 759 q 399 784 425 759 q 373 844 373 809 "},"ý":{"x_min":0,"x_max":0,"ha":625,"o":"m -144 -211 q -76 -225 -109 -225 q 131 -84 36 -225 l 193 5 l 181 34 l 106 568 l 68 683 l 204 701 l 273 222 l 275 122 l 320 218 l 469 466 q 476 683 534 576 l 602 701 q 623 627 619 663 q 619 555 627 591 q 596 487 611 519 q 558 416 581 455 l 219 -130 q 77 -283 158 -229 q -77 -337 -4 -337 q -147 -322 -112 -337 l -144 -211 m 468 1004 l 620 1004 l 351 777 l 277 805 l 468 1004 "},"x":{"x_min":0,"x_max":0,"ha":651,"o":"m -33 0 l 261 347 l 155 584 l 88 683 l 226 701 l 330 462 l 343 429 l 356 451 l 461 563 q 486 632 486 591 q 472 683 486 659 l 595 701 q 605 648 605 677 q 543 509 605 576 l 386 343 l 540 0 l 411 0 l 313 220 l 302 252 l 279 220 l 95 0 l -33 0 "},"è":{"x_min":0,"x_max":0,"ha":624,"o":"m 587 552 q 526 404 587 465 q 376 316 465 343 q 183 290 287 290 l 183 276 q 222 141 183 194 q 344 88 262 88 q 446 115 394 88 q 525 168 498 141 l 552 194 l 552 73 q 537 58 548 68 q 497 28 526 48 q 420 -4 469 8 q 315 -18 372 -18 q 127 63 193 -18 q 61 268 61 145 q 158 574 61 444 q 406 704 255 704 q 541 662 495 704 q 587 552 587 620 m 388 613 q 261 543 313 613 q 191 370 209 472 q 250 377 216 372 q 336 398 283 383 q 425 450 390 413 q 461 538 461 487 q 388 613 461 613 m 179 1005 l 331 1005 l 486 807 l 406 779 l 179 1005 "},"º":{"x_min":0,"x_max":0,"ha":614,"o":"m 318 465 q 420 533 373 465 q 468 716 468 601 q 443 820 468 777 q 377 862 418 862 q 271 783 315 862 q 227 612 227 704 q 250 505 227 545 q 318 465 273 465 m 404 934 q 526 879 477 934 q 575 732 575 825 q 499 492 575 591 q 297 393 423 393 q 211 412 247 393 q 156 464 175 431 q 131 529 138 497 q 123 594 123 561 q 200 839 123 744 q 404 934 277 934 "},"Ø":{"x_min":0,"x_max":0,"ha":901,"o":"m 862 575 q 734 155 862 329 q 391 -18 605 -18 q 229 20 300 -18 l 169 -73 l 98 -52 l 172 65 q 92 191 118 116 q 66 337 66 266 q 201 763 66 595 q 543 930 336 930 q 688 897 622 930 l 747 990 l 823 969 l 751 854 q 862 575 862 755 m 405 83 q 627 213 522 83 q 732 558 732 343 q 682 744 732 668 l 291 120 q 405 83 340 83 m 195 363 q 241 177 195 254 l 629 800 q 525 832 581 832 q 356 759 434 832 q 237 579 279 686 q 195 363 195 472 "},"∞":{"x_min":0,"x_max":0,"ha":860},"μ":{"x_min":0,"x_max":0,"ha":721},"÷":{"x_min":0,"x_max":0,"ha":657,"o":"m 120 395 l 551 395 l 523 300 l 120 300 l 120 395 m 409 565 q 385 503 409 529 q 326 477 361 477 q 267 503 291 477 q 243 565 243 529 q 267 625 243 600 q 326 650 291 650 q 385 625 361 650 q 409 565 409 600 m 409 145 q 385 84 409 109 q 326 58 361 58 q 267 84 291 58 q 243 145 243 109 q 267 205 243 180 q 326 230 291 230 q 385 205 361 230 q 409 145 409 180 "},"h":{"x_min":0,"x_max":0,"ha":746,"o":"m 584 0 l 455 0 l 540 451 q 494 588 568 588 q 393 556 451 588 q 300 491 336 525 l 262 459 l 194 104 l 186 0 l 58 0 l 233 900 l 237 1033 l 379 1048 l 294 632 l 273 563 q 299 586 281 572 q 357 631 316 601 q 447 682 398 662 q 540 702 497 702 q 654 645 625 702 q 668 497 684 587 l 591 101 l 584 0 "},".":{"x_min":0,"x_max":0,"ha":329,"o":"m 227 69 q 202 7 227 33 q 141 -18 177 -18 q 80 7 105 -18 q 55 69 55 33 q 81 129 55 104 q 141 154 106 154 q 202 129 176 154 q 227 69 227 104 "},";":{"x_min":0,"x_max":0,"ha":358,"o":"m 306 452 q 281 391 306 416 q 220 365 256 365 q 159 391 184 365 q 134 452 134 416 q 160 512 134 487 q 220 537 186 537 q 281 512 255 537 q 306 452 306 487 m 11 -188 l -19 -130 q 65 -57 26 -101 q 105 20 105 -13 q 73 66 105 47 q 106 129 81 104 q 168 154 131 154 q 222 132 200 154 q 245 79 245 111 q 183 -62 245 12 q 11 -188 120 -137 "},"f":{"x_min":0,"x_max":0,"ha":419,"o":"m 277 588 l 187 -15 q 90 -247 166 -159 q -98 -336 15 -334 l -130 -240 q 2 -181 -50 -240 q 70 -15 54 -123 l 161 588 l 73 588 l 88 683 l 175 683 l 190 784 q 278 986 211 925 q 436 1047 345 1047 q 587 1000 515 1047 l 525 904 q 431 937 486 937 q 354 904 388 937 q 311 809 319 870 l 291 683 l 486 683 l 429 588 l 277 588 "},"“":{"x_min":0,"x_max":0,"ha":593,"o":"m 323 933 l 362 884 q 293 803 329 855 q 258 716 258 751 q 287 670 258 677 q 261 608 287 633 q 198 583 236 583 q 147 607 168 583 q 127 668 127 632 q 183 804 127 730 q 323 933 238 879 m 569 933 l 608 884 q 539 803 575 855 q 504 716 504 751 q 533 670 504 677 q 507 608 533 633 q 444 583 481 583 q 393 607 413 583 q 373 668 373 632 q 429 804 373 730 q 569 933 484 879 "},"A":{"x_min":0,"x_max":0,"ha":763,"o":"m -86 0 l 443 915 l 530 932 l 662 152 l 701 0 l 561 0 l 522 238 l 176 238 l 40 0 l -86 0 m 413 658 l 234 344 l 504 344 l 450 658 l 444 720 l 413 658 "},"6":{"x_min":0,"x_max":0,"ha":653,"o":"m 306 80 q 431 158 384 80 q 477 323 477 236 q 441 445 477 404 q 347 487 404 487 q 275 472 313 487 q 213 443 236 458 l 193 427 q 181 305 181 361 q 306 80 181 80 m 647 798 q 520 829 580 829 q 338 743 416 829 q 216 523 261 658 q 397 584 298 584 q 539 523 481 584 q 597 345 597 462 q 509 85 597 188 q 279 -18 422 -18 q 120 72 173 -18 q 66 297 66 162 q 100 516 66 405 q 191 720 133 627 q 338 872 250 813 q 527 932 426 932 q 690 895 608 932 l 647 798 "},"‘":{"x_min":0,"x_max":0,"ha":347,"o":"m 323 933 l 362 884 q 293 803 329 855 q 258 716 258 751 q 287 670 258 677 q 261 608 287 633 q 198 583 236 583 q 147 607 168 583 q 127 668 127 632 q 183 804 127 730 q 323 933 238 879 "},"π":{"x_min":0,"x_max":0,"ha":589},"O":{"x_min":0,"x_max":0,"ha":901,"o":"m 523 829 q 414 797 470 829 q 309 709 358 766 q 227 559 259 652 q 195 354 195 465 q 253 157 195 234 q 404 80 311 80 q 572 153 494 80 q 691 333 650 226 q 733 548 733 440 q 677 750 733 670 q 523 829 622 829 m 66 337 q 195 757 66 583 q 537 930 323 930 q 691 895 625 930 q 793 803 758 859 q 845 689 829 747 q 862 575 862 632 q 727 149 862 316 q 386 -18 593 -18 q 151 84 236 -18 q 66 337 66 186 "},"n":{"x_min":0,"x_max":0,"ha":751,"o":"m 584 0 l 455 0 l 540 451 q 494 588 568 588 q 393 556 451 588 q 300 491 336 525 l 262 459 l 194 104 l 186 0 l 58 0 l 166 555 l 156 669 l 294 698 l 273 563 q 299 586 281 572 q 357 631 316 601 q 447 682 398 662 q 540 702 497 702 q 654 645 625 702 q 668 497 683 588 l 591 101 l 584 0 "},"3":{"x_min":0,"x_max":0,"ha":653,"o":"m 18 -43 q 44 -44 38 -44 q 159 -29 100 -44 q 277 15 219 -15 q 372 100 334 45 q 409 226 409 155 q 394 286 409 261 q 352 327 379 312 q 298 348 325 341 q 238 361 272 355 l 270 443 q 448 625 448 525 q 419 699 448 676 q 347 722 390 722 q 316 720 331 722 q 286 714 300 718 q 258 706 272 711 q 233 696 244 701 q 212 686 222 691 q 195 678 202 682 q 186 672 188 675 l 181 670 l 154 768 l 158 769 q 170 775 162 772 q 189 783 177 779 q 215 792 201 787 q 247 801 230 797 q 283 809 265 805 q 322 814 301 812 q 362 816 343 816 q 507 772 447 816 q 568 645 568 727 q 518 517 568 577 q 384 429 469 456 q 490 375 447 420 q 533 238 533 330 q 460 35 533 125 q 283 -97 387 -54 q 70 -140 179 -140 q 27 -137 47 -140 l 18 -43 "},"9":{"x_min":0,"x_max":0,"ha":653,"o":"m 373 716 q 249 638 295 716 q 202 473 202 561 q 239 351 202 393 q 333 309 276 309 q 405 324 366 309 q 466 354 444 338 l 487 369 q 498 491 498 436 q 373 716 498 716 m 33 -23 q 156 -54 94 -54 q 463 273 356 -54 q 283 212 381 212 q 140 273 198 212 q 83 451 83 334 q 170 711 83 608 q 401 815 258 815 q 560 725 506 815 q 613 500 613 634 q 582 276 613 390 q 495 64 551 162 q 347 -95 438 -33 q 150 -158 256 -158 q -9 -120 69 -158 l 33 -23 "},"l":{"x_min":0,"x_max":0,"ha":353,"o":"m 376 1048 l 191 104 l 184 0 l 55 0 l 231 905 l 238 1033 l 376 1048 "},"∂":{"x_min":0,"x_max":0,"ha":17,"o":"m 16 963 l 16 0 l 0 0 l 0 963 l 16 963 "},"4":{"x_min":0,"x_max":0,"ha":653,"o":"m 4 193 l 470 819 l 569 788 l 470 226 l 616 226 l 568 118 l 450 118 l 423 -34 l 419 -138 l 288 -138 l 333 118 l 4 118 l 4 193 m 356 226 l 419 576 l 440 657 l 386 559 l 179 261 l 148 226 l 356 226 "},"p":{"x_min":0,"x_max":0,"ha":725,"o":"m 295 698 l 277 565 q 313 603 290 580 q 397 663 336 626 q 512 701 459 701 q 621 643 577 701 q 665 480 665 586 q 627 240 665 351 q 504 56 588 130 q 302 -18 419 -18 q 224 -7 270 -18 q 176 6 177 2 l 130 -229 l 123 -333 l -5 -333 l 168 555 l 158 669 l 295 698 m 263 455 l 194 98 q 302 76 241 76 q 475 193 408 76 q 543 461 543 309 q 519 558 543 526 q 461 590 495 590 q 381 556 430 590 q 297 488 331 522 l 263 455 "},"‡":{"x_min":0,"x_max":0,"ha":676,"o":"m 243 -340 l 127 -340 l 194 0 l 15 0 l 33 94 l 212 94 l 308 588 l 129 588 l 148 683 l 327 683 l 369 902 l 488 918 l 443 683 l 669 683 l 608 588 l 423 588 l 327 94 l 536 94 l 476 0 l 309 0 l 243 -340 "},"à":{"x_min":0,"x_max":0,"ha":704,"o":"m 441 223 l 515 605 q 425 616 445 616 q 254 497 333 616 q 175 223 175 377 q 195 128 175 170 q 255 86 215 86 q 311 107 277 86 q 372 154 345 129 q 420 202 400 180 l 441 223 m 427 86 l 430 115 q 411 93 423 106 q 368 50 398 79 q 296 1 337 20 q 215 -18 255 -18 q 100 40 147 -18 q 52 202 52 98 q 97 441 52 327 q 226 628 141 555 q 415 701 311 701 q 554 692 473 701 q 647 683 636 683 l 556 213 q 547 92 540 140 q 595 0 555 44 l 472 -18 q 427 86 427 16 m 233 1005 l 386 1005 l 540 807 l 461 779 l 233 1005 "},"Ü":{"x_min":0,"x_max":0,"ha":921,"o":"m 777 913 l 908 913 l 801 365 q 668 87 768 193 q 416 -18 569 -18 q 263 9 326 -18 q 168 77 200 36 q 125 180 137 119 q 115 297 112 241 q 130 420 118 352 l 197 786 l 204 913 l 348 913 l 256 416 q 425 83 193 83 q 593 160 523 83 q 686 350 663 237 l 770 786 l 777 913 m 512 1086 q 491 1032 512 1054 q 443 1009 470 1009 q 394 1032 415 1009 q 373 1086 373 1054 q 394 1139 373 1116 q 443 1162 415 1162 q 491 1139 470 1162 q 512 1086 512 1116 m 768 1086 q 747 1032 768 1054 q 698 1009 726 1009 q 650 1032 670 1009 q 629 1086 629 1054 q 650 1139 629 1116 q 698 1162 670 1162 q 747 1139 726 1162 q 768 1086 768 1116 "},"ó":{"x_min":0,"x_max":0,"ha":699,"o":"m 305 75 q 452 166 384 75 q 520 413 520 258 q 483 554 520 497 q 386 612 445 612 q 237 504 300 612 q 175 275 175 397 q 207 129 175 184 q 305 75 240 75 m 643 433 q 602 211 643 312 q 477 46 562 111 q 277 -18 393 -18 q 167 8 213 -18 q 97 77 120 34 q 63 163 73 120 q 52 250 52 206 q 151 577 52 451 q 420 704 250 704 q 579 631 515 704 q 643 433 643 558 m 516 1005 l 669 1005 l 400 779 l 326 807 l 516 1005 "},"√":{"x_min":0,"x_max":0,"ha":313}}}
